<?xml version="1.0" encoding="utf-8" standalone="no"?>
<!DOCTYPE svg PUBLIC "-//W3C//DTD SVG 1.1//EN"
  "http://www.w3.org/Graphics/SVG/1.1/DTD/svg11.dtd">
<svg xmlns:xlink="http://www.w3.org/1999/xlink" width="720pt" height="504pt" viewBox="0 0 720 504" xmlns="http://www.w3.org/2000/svg" version="1.1">
 <metadata>
  <rdf:RDF xmlns:dc="http://purl.org/dc/elements/1.1/" xmlns:cc="http://creativecommons.org/ns#" xmlns:rdf="http://www.w3.org/1999/02/22-rdf-syntax-ns#">
   <cc:Work>
    <dc:type rdf:resource="http://purl.org/dc/dcmitype/StillImage"/>
    <dc:format>image/svg+xml</dc:format>
    <dc:creator>
     <cc:Agent>
      <dc:title>Matplotlib v3.10.0, https://matplotlib.org/</dc:title>
     </cc:Agent>
    </dc:creator>
   </cc:Work>
  </rdf:RDF>
 </metadata>
 <defs>
  <style type="text/css">*{stroke-linejoin: round; stroke-linecap: butt}</style>
 </defs>
 <g id="figure_1">
  <g id="patch_1">
   <path d="M 0 504 
L 720 504 
L 720 0 
L 0 0 
z
" style="fill: #ffffff"/>
  </g>
  <g id="axes_1">
   <g id="patch_2">
    <path d="M 66.209615 166.314663 
L 716.99976 166.314663 
L 716.99976 41.464314 
L 66.209615 41.464314 
z
" style="fill: #ffffff"/>
   </g>
   <g id="matplotlib.axis_1">
    <g id="xtick_1">
     <g id="line2d_1">
      <path d="M 125.285607 166.314663 
L 125.285607 41.464314 
" clip-path="url(#p4707574b34)" style="fill: none; stroke: #b0b0b0; stroke-opacity: 0.15; stroke-width: 0.8; stroke-linecap: square"/>
     </g>
     <g id="line2d_2">
      <defs>
       <path id="m823bcb7d03" d="M 0 0 
L 0 3.5 
" style="stroke: #000000; stroke-width: 0.8"/>
      </defs>
      <g>
       <use xlink:href="#m823bcb7d03" x="125.285607" y="166.314663" style="stroke: #000000; stroke-width: 0.8"/>
      </g>
     </g>
    </g>
    <g id="xtick_2">
     <g id="line2d_3">
      <path d="M 199.311323 166.314663 
L 199.311323 41.464314 
" clip-path="url(#p4707574b34)" style="fill: none; stroke: #b0b0b0; stroke-opacity: 0.15; stroke-width: 0.8; stroke-linecap: square"/>
     </g>
     <g id="line2d_4">
      <g>
       <use xlink:href="#m823bcb7d03" x="199.311323" y="166.314663" style="stroke: #000000; stroke-width: 0.8"/>
      </g>
     </g>
    </g>
    <g id="xtick_3">
     <g id="line2d_5">
      <path d="M 273.337039 166.314663 
L 273.337039 41.464314 
" clip-path="url(#p4707574b34)" style="fill: none; stroke: #b0b0b0; stroke-opacity: 0.15; stroke-width: 0.8; stroke-linecap: square"/>
     </g>
     <g id="line2d_6">
      <g>
       <use xlink:href="#m823bcb7d03" x="273.337039" y="166.314663" style="stroke: #000000; stroke-width: 0.8"/>
      </g>
     </g>
    </g>
    <g id="xtick_4">
     <g id="line2d_7">
      <path d="M 347.362755 166.314663 
L 347.362755 41.464314 
" clip-path="url(#p4707574b34)" style="fill: none; stroke: #b0b0b0; stroke-opacity: 0.15; stroke-width: 0.8; stroke-linecap: square"/>
     </g>
     <g id="line2d_8">
      <g>
       <use xlink:href="#m823bcb7d03" x="347.362755" y="166.314663" style="stroke: #000000; stroke-width: 0.8"/>
      </g>
     </g>
    </g>
    <g id="xtick_5">
     <g id="line2d_9">
      <path d="M 421.388472 166.314663 
L 421.388472 41.464314 
" clip-path="url(#p4707574b34)" style="fill: none; stroke: #b0b0b0; stroke-opacity: 0.15; stroke-width: 0.8; stroke-linecap: square"/>
     </g>
     <g id="line2d_10">
      <g>
       <use xlink:href="#m823bcb7d03" x="421.388472" y="166.314663" style="stroke: #000000; stroke-width: 0.8"/>
      </g>
     </g>
    </g>
    <g id="xtick_6">
     <g id="line2d_11">
      <path d="M 495.414188 166.314663 
L 495.414188 41.464314 
" clip-path="url(#p4707574b34)" style="fill: none; stroke: #b0b0b0; stroke-opacity: 0.15; stroke-width: 0.8; stroke-linecap: square"/>
     </g>
     <g id="line2d_12">
      <g>
       <use xlink:href="#m823bcb7d03" x="495.414188" y="166.314663" style="stroke: #000000; stroke-width: 0.8"/>
      </g>
     </g>
    </g>
    <g id="xtick_7">
     <g id="line2d_13">
      <path d="M 569.439904 166.314663 
L 569.439904 41.464314 
" clip-path="url(#p4707574b34)" style="fill: none; stroke: #b0b0b0; stroke-opacity: 0.15; stroke-width: 0.8; stroke-linecap: square"/>
     </g>
     <g id="line2d_14">
      <g>
       <use xlink:href="#m823bcb7d03" x="569.439904" y="166.314663" style="stroke: #000000; stroke-width: 0.8"/>
      </g>
     </g>
    </g>
    <g id="xtick_8">
     <g id="line2d_15">
      <path d="M 643.465621 166.314663 
L 643.465621 41.464314 
" clip-path="url(#p4707574b34)" style="fill: none; stroke: #b0b0b0; stroke-opacity: 0.15; stroke-width: 0.8; stroke-linecap: square"/>
     </g>
     <g id="line2d_16">
      <g>
       <use xlink:href="#m823bcb7d03" x="643.465621" y="166.314663" style="stroke: #000000; stroke-width: 0.8"/>
      </g>
     </g>
    </g>
   </g>
   <g id="matplotlib.axis_2">
    <g id="ytick_1">
     <g id="line2d_17">
      <path d="M 66.209615 151.321382 
L 716.99976 151.321382 
" clip-path="url(#p4707574b34)" style="fill: none; stroke: #b0b0b0; stroke-opacity: 0.15; stroke-width: 0.8; stroke-linecap: square"/>
     </g>
     <g id="line2d_18">
      <defs>
       <path id="mdbd8738e15" d="M 0 0 
L -3.5 0 
" style="stroke: #000000; stroke-width: 0.8"/>
      </defs>
      <g>
       <use xlink:href="#mdbd8738e15" x="66.209615" y="151.321382" style="stroke: #000000; stroke-width: 0.8"/>
      </g>
     </g>
     <g id="text_1">
      <text style="font-size: 12px; font-family: 'DejaVu Sans'; text-anchor: end" x="59.209615" y="155.880445" transform="rotate(-0 59.209615 155.880445)">−50</text>
     </g>
    </g>
    <g id="ytick_2">
     <g id="line2d_19">
      <path d="M 66.209615 121.139755 
L 716.99976 121.139755 
" clip-path="url(#p4707574b34)" style="fill: none; stroke: #b0b0b0; stroke-opacity: 0.15; stroke-width: 0.8; stroke-linecap: square"/>
     </g>
     <g id="line2d_20">
      <g>
       <use xlink:href="#mdbd8738e15" x="66.209615" y="121.139755" style="stroke: #000000; stroke-width: 0.8"/>
      </g>
     </g>
     <g id="text_2">
      <text style="font-size: 12px; font-family: 'DejaVu Sans'; text-anchor: end" x="59.209615" y="125.698817" transform="rotate(-0 59.209615 125.698817)">−25</text>
     </g>
    </g>
    <g id="ytick_3">
     <g id="line2d_21">
      <path d="M 66.209615 90.958128 
L 716.99976 90.958128 
" clip-path="url(#p4707574b34)" style="fill: none; stroke: #b0b0b0; stroke-opacity: 0.15; stroke-width: 0.8; stroke-linecap: square"/>
     </g>
     <g id="line2d_22">
      <g>
       <use xlink:href="#mdbd8738e15" x="66.209615" y="90.958128" style="stroke: #000000; stroke-width: 0.8"/>
      </g>
     </g>
     <g id="text_3">
      <text style="font-size: 12px; font-family: 'DejaVu Sans'; text-anchor: end" x="59.209615" y="95.51719" transform="rotate(-0 59.209615 95.51719)">0</text>
     </g>
    </g>
    <g id="ytick_4">
     <g id="line2d_23">
      <path d="M 66.209615 60.7765 
L 716.99976 60.7765 
" clip-path="url(#p4707574b34)" style="fill: none; stroke: #b0b0b0; stroke-opacity: 0.15; stroke-width: 0.8; stroke-linecap: square"/>
     </g>
     <g id="line2d_24">
      <g>
       <use xlink:href="#mdbd8738e15" x="66.209615" y="60.7765" style="stroke: #000000; stroke-width: 0.8"/>
      </g>
     </g>
     <g id="text_4">
      <text style="font-size: 12px; font-family: 'DejaVu Sans'; text-anchor: end" x="59.209615" y="65.335563" transform="rotate(-0 59.209615 65.335563)">25</text>
     </g>
    </g>
    <g id="text_5">
     <text style="font-size: 12px; font-family: 'DejaVu Sans'; text-anchor: middle" x="27.388365" y="103.889489" transform="rotate(-90 27.388365 103.889489)">µV</text>
    </g>
   </g>
   <g id="line2d_25">
    <path d="M 95.790985 96.328691 
L 96.369311 85.438623 
L 96.947637 105.311589 
L 97.525963 94.343329 
L 98.104289 94.637854 
L 98.682615 116.791238 
L 99.260941 100.662359 
L 99.839267 105.79417 
L 100.417592 118.335548 
L 100.995918 94.543664 
L 101.574244 84.993356 
L 102.15257 100.742484 
L 102.730896 104.327502 
L 103.309222 100.849281 
L 103.887548 88.5114 
L 104.465874 104.214491 
L 105.0442 128.384817 
L 106.200852 95.78443 
L 106.779177 101.982056 
L 107.357503 100.915486 
L 107.935829 128.095872 
L 108.514155 112.962328 
L 109.092481 92.475333 
L 109.670807 120.105606 
L 110.249133 124.038188 
L 110.827459 124.168837 
L 111.405785 123.270101 
L 111.984111 126.006545 
L 112.562437 130.108543 
L 113.140762 125.306451 
L 113.719088 97.846499 
L 114.297414 114.893814 
L 114.87574 118.09771 
L 115.454066 137.383742 
L 116.032392 110.699683 
L 117.189044 101.114379 
L 117.76737 120.228105 
L 118.345696 128.959874 
L 118.924022 133.997104 
L 119.502347 131.328678 
L 120.080673 145.752952 
L 120.658999 121.305091 
L 121.237325 128.7811 
L 121.815651 114.675977 
L 122.393977 117.478617 
L 122.972303 134.375912 
L 123.550629 132.28425 
L 124.128955 124.402674 
L 124.707281 114.585605 
L 125.285607 134.955719 
L 125.863932 109.27703 
L 126.442258 116.818784 
L 127.020584 95.641995 
L 127.59891 97.888121 
L 128.177236 88.356306 
L 129.333888 133.661871 
L 129.912214 144.6363 
L 130.49054 127.077796 
L 131.068866 128.573526 
L 131.647192 141.869238 
L 132.803843 101.930837 
L 133.382169 117.488245 
L 133.960495 116.856816 
L 134.538821 129.061931 
L 135.117147 110.08555 
L 135.695473 106.985346 
L 136.273799 118.619574 
L 136.852125 113.239899 
L 137.430451 124.364339 
L 138.008777 127.496613 
L 138.587102 115.692789 
L 139.165428 111.664078 
L 139.743754 116.648106 
L 140.32208 98.861196 
L 140.900406 98.216542 
L 141.478732 109.571476 
L 142.057058 123.534278 
L 142.635384 114.501473 
L 143.21371 108.379418 
L 143.792036 105.334669 
L 144.370362 98.87851 
L 144.948687 101.706614 
L 145.527013 96.374143 
L 146.105339 96.593263 
L 146.683665 90.718671 
L 147.261991 92.055037 
L 147.840317 75.124034 
L 148.418643 72.641348 
L 148.996969 82.638612 
L 149.575295 86.859532 
L 150.153621 94.433945 
L 150.731947 103.97339 
L 151.310272 75.386396 
L 151.888598 98.569097 
L 152.466924 110.986964 
L 153.04525 107.946279 
L 154.201902 98.379577 
L 154.780228 86.872277 
L 155.358554 92.103216 
L 155.93688 90.995044 
L 156.515206 75.244591 
L 157.093532 91.491564 
L 157.671857 92.811353 
L 158.250183 88.876357 
L 158.828509 94.927964 
L 159.406835 90.679859 
L 159.985161 111.87738 
L 160.563487 110.667221 
L 161.141813 112.482674 
L 161.720139 86.222443 
L 162.298465 82.047446 
L 162.876791 89.823513 
L 163.455117 103.651711 
L 164.033442 87.302987 
L 164.611768 79.341154 
L 165.190094 80.600814 
L 165.76842 92.746191 
L 166.346746 101.517351 
L 166.925072 91.787044 
L 167.503398 97.493269 
L 168.081724 70.307722 
L 168.66005 86.737235 
L 169.238376 83.104222 
L 169.816702 66.956682 
L 170.395027 91.355615 
L 170.973353 93.965475 
L 171.551679 108.533408 
L 172.130005 106.357556 
L 172.708331 78.967661 
L 173.286657 72.666157 
L 173.864983 68.222035 
L 175.021635 87.931867 
L 175.599961 76.654866 
L 176.178287 76.364579 
L 176.756612 93.33742 
L 177.334938 93.275052 
L 177.913264 79.350363 
L 178.49159 95.007557 
L 179.069916 80.073112 
L 179.648242 86.383835 
L 180.226568 86.611883 
L 180.804894 85.374952 
L 181.38322 82.457985 
L 181.961546 87.921154 
L 182.539872 73.268534 
L 183.118197 75.016772 
L 183.696523 114.062863 
L 184.274849 94.077534 
L 184.853175 83.134077 
L 185.431501 87.60589 
L 186.588153 111.003248 
L 187.166479 102.142109 
L 187.744805 99.30562 
L 188.901457 90.278092 
L 189.479782 97.219425 
L 190.058108 77.546065 
L 190.636434 88.68163 
L 191.21476 96.622 
L 191.793086 86.96873 
L 192.371412 105.941894 
L 192.949738 103.217197 
L 193.528064 89.197797 
L 194.10639 98.745199 
L 194.684716 115.087731 
L 195.263042 107.170262 
L 195.841367 106.209824 
L 196.419693 111.512102 
L 196.998019 99.433647 
L 197.576345 117.656756 
L 198.154671 124.681503 
L 198.732997 122.762292 
L 199.311323 129.727799 
L 199.889649 120.831218 
L 200.467975 123.372184 
L 201.046301 121.927734 
L 201.624627 91.687533 
L 202.202952 103.859477 
L 202.781278 111.88635 
L 203.359604 122.612961 
L 203.93793 101.94839 
L 204.516256 100.054143 
L 205.094582 92.583896 
L 205.672908 99.540878 
L 206.251234 95.211589 
L 206.82956 75.840873 
L 207.407886 60.63154 
L 207.986212 71.765111 
L 208.564537 65.145687 
L 209.142863 84.693632 
L 209.721189 108.319852 
L 210.299515 90.182411 
L 210.877841 119.41624 
L 211.456167 100.421123 
L 212.034493 106.699452 
L 212.612819 79.41918 
L 213.191145 100.122579 
L 213.769471 73.084012 
L 214.347796 73.961297 
L 215.504448 95.679482 
L 216.082774 95.218044 
L 216.6611 104.542614 
L 217.239426 90.440633 
L 217.817752 110.195609 
L 218.396078 73.495687 
L 218.974404 85.688325 
L 219.55273 91.591185 
L 220.131056 103.077495 
L 220.709381 100.420984 
L 221.287707 95.609798 
L 221.866033 102.839262 
L 222.444359 101.903816 
L 223.022685 101.313822 
L 223.601011 92.829019 
L 224.179337 100.067373 
L 224.757663 100.28812 
L 225.335989 85.351158 
L 225.914315 76.584921 
L 226.492641 112.222675 
L 227.070966 112.534066 
L 227.649292 98.414933 
L 228.227618 93.061398 
L 228.805944 97.671672 
L 229.38427 106.416135 
L 229.962596 91.741804 
L 230.540922 67.894479 
L 231.119248 88.006395 
L 231.697574 116.054853 
L 232.2759 109.058793 
L 232.854226 113.803997 
L 233.432551 109.838618 
L 234.010877 103.823307 
L 234.589203 105.828858 
L 235.167529 89.605182 
L 235.745855 115.969485 
L 236.324181 113.482719 
L 236.902507 104.96906 
L 237.480833 106.003912 
L 238.059159 92.708753 
L 238.637485 93.764383 
L 239.215811 92.740128 
L 239.794136 86.325472 
L 240.372462 82.552686 
L 240.950788 80.906015 
L 241.529114 73.354988 
L 242.10744 81.477078 
L 242.685766 79.553907 
L 243.264092 83.976999 
L 243.842418 82.975503 
L 244.420744 78.974646 
L 244.99907 70.741799 
L 245.577396 71.420565 
L 246.155721 72.583794 
L 246.734047 85.028022 
L 247.312373 76.397571 
L 247.890699 58.332043 
L 248.469025 67.601057 
L 249.047351 82.675414 
L 249.625677 84.219872 
L 250.204003 79.269337 
L 250.782329 82.779647 
L 251.360655 71.58345 
L 251.938981 84.994902 
L 252.517306 68.680736 
L 253.095632 98.174845 
L 253.673958 97.856876 
L 254.252284 112.123841 
L 254.83061 121.780473 
L 255.408936 105.463475 
L 255.987262 106.525884 
L 256.565588 80.009353 
L 257.143914 98.065669 
L 257.72224 81.873509 
L 258.300566 89.450282 
L 258.878891 93.062446 
L 259.457217 92.685236 
L 260.035543 104.715699 
L 260.613869 92.506067 
L 261.192195 91.98213 
L 261.770521 108.352267 
L 262.927173 75.31216 
L 263.505499 75.772629 
L 264.662151 97.738109 
L 265.240476 96.011828 
L 265.818802 113.034655 
L 266.397128 121.251557 
L 266.975454 93.802448 
L 267.55378 87.674437 
L 268.132106 86.34064 
L 268.710432 70.03467 
L 269.288758 68.885132 
L 269.867084 88.620631 
L 270.44541 89.9027 
L 271.023736 78.070707 
L 271.602061 81.391988 
L 272.180387 73.87806 
L 273.337039 104.397622 
L 273.915365 101.278602 
L 274.493691 98.854723 
L 275.072017 88.141737 
L 276.228669 47.13933 
L 276.806995 81.138392 
L 277.385321 87.384934 
L 277.963646 70.900785 
L 278.541972 84.334226 
L 279.120298 82.414945 
L 279.698624 93.742035 
L 280.27695 71.714512 
L 280.855276 86.668871 
L 281.433602 85.374876 
L 282.011928 76.326856 
L 282.590254 82.990381 
L 283.16858 88.102391 
L 283.746906 83.440727 
L 284.325231 83.534332 
L 285.481883 67.753859 
L 286.060209 60.238002 
L 286.638535 61.940628 
L 287.216861 60.162842 
L 287.795187 59.324936 
L 288.373513 90.903735 
L 288.951839 88.782296 
L 289.530165 88.679008 
L 290.108491 103.283491 
L 291.265142 88.907514 
L 291.843468 109.784835 
L 292.421794 89.454304 
L 293.00012 113.123708 
L 293.578446 114.623048 
L 294.156772 121.03667 
L 294.735098 137.095118 
L 295.313424 143.138473 
L 295.89175 135.268395 
L 296.470076 132.984689 
L 297.048401 110.694291 
L 297.626727 118.904049 
L 298.205053 118.760375 
L 298.783379 99.519551 
L 299.361705 112.955804 
L 299.940031 118.393683 
L 300.518357 113.486812 
L 301.096683 144.81138 
L 302.253335 123.95445 
L 302.831661 108.934434 
L 303.409986 106.248875 
L 303.988312 104.666396 
L 304.566638 104.987007 
L 305.144964 93.52249 
L 305.72329 98.982762 
L 306.301616 109.743359 
L 306.879942 87.435222 
L 307.458268 125.350172 
L 308.036594 108.728433 
L 308.61492 119.175672 
L 309.193246 87.333551 
L 309.771571 118.042395 
L 310.349897 118.550061 
L 310.928223 103.901583 
L 311.506549 108.775 
L 312.084875 125.865042 
L 312.663201 116.063512 
L 313.241527 94.142306 
L 313.819853 100.399168 
L 314.398179 112.922079 
L 314.976505 102.613868 
L 315.554831 101.35024 
L 316.711482 133.054832 
L 317.289808 121.014407 
L 317.868134 128.309315 
L 318.44646 112.913968 
L 319.024786 132.261093 
L 319.603112 129.418594 
L 320.181438 127.581071 
L 320.759764 136.686575 
L 321.916416 114.852148 
L 323.073067 127.790323 
L 324.229719 135.907252 
L 324.808045 118.489274 
L 325.386371 122.720572 
L 325.964697 122.68053 
L 326.543023 126.016438 
L 327.699675 115.408536 
L 328.856326 80.648329 
L 329.434652 82.429902 
L 330.012978 100.189725 
L 330.591304 113.801928 
L 331.16963 120.722767 
L 331.747956 103.041226 
L 332.326282 98.73845 
L 332.904608 98.329685 
L 333.482934 78.73659 
L 334.06126 114.988932 
L 334.639585 96.750502 
L 335.217911 119.472815 
L 335.796237 129.819529 
L 336.374563 111.782746 
L 336.952889 98.730625 
L 337.531215 89.464662 
L 338.109541 94.474899 
L 338.687867 89.118384 
L 339.266193 103.051789 
L 339.844519 102.224761 
L 340.422845 85.4918 
L 341.579496 106.313192 
L 342.157822 101.672176 
L 342.736148 109.454341 
L 343.314474 120.71002 
L 343.8928 111.814152 
L 344.471126 96.274812 
L 345.049452 107.307737 
L 345.627778 99.643503 
L 346.206104 116.375788 
L 346.78443 140.561506 
L 347.362755 117.145058 
L 347.941081 106.423284 
L 348.519407 104.384352 
L 349.097733 119.943559 
L 349.676059 122.068872 
L 350.254385 124.967041 
L 350.832711 123.893742 
L 351.411037 112.640955 
L 351.989363 123.476253 
L 352.567689 106.697991 
L 353.146015 121.722062 
L 353.72434 144.102633 
L 354.302666 123.440513 
L 354.880992 138.286578 
L 355.459318 104.01782 
L 356.037644 117.857419 
L 356.61597 115.660592 
L 357.194296 144.28454 
L 357.772622 152.083105 
L 358.350948 110.834777 
L 358.929274 110.765915 
L 359.5076 99.712866 
L 360.085925 126.871146 
L 360.664251 109.86427 
L 361.242577 132.793588 
L 361.820903 121.148753 
L 362.399229 115.074665 
L 362.977555 125.911136 
L 363.555881 100.998947 
L 364.134207 99.50155 
L 364.712533 100.89276 
L 365.290859 99.173945 
L 365.869185 107.90956 
L 366.44751 98.047932 
L 367.025836 105.633553 
L 367.604162 116.607108 
L 368.182488 142.641069 
L 368.760814 99.823375 
L 369.33914 87.928856 
L 369.917466 108.895258 
L 370.495792 116.332104 
L 371.074118 138.576832 
L 371.652444 126.116458 
L 372.23077 118.341724 
L 372.809095 105.426119 
L 373.387421 102.5747 
L 373.965747 106.022588 
L 374.544073 115.406947 
L 375.122399 112.963228 
L 375.700725 115.902288 
L 376.279051 120.229163 
L 376.857377 102.5553 
L 377.435703 105.849013 
L 378.014029 127.412014 
L 379.17068 86.700904 
L 379.749006 116.853568 
L 380.327332 101.133 
L 380.905658 111.491057 
L 381.483984 113.190757 
L 382.06231 127.122102 
L 382.640636 121.205177 
L 383.218962 111.615998 
L 383.797288 130.19249 
L 384.375614 133.103134 
L 384.95394 147.223648 
L 385.532265 142.255289 
L 386.110591 122.186109 
L 386.688917 95.641332 
L 387.267243 108.907336 
L 387.845569 118.449225 
L 388.423895 87.986274 
L 389.002221 106.433795 
L 389.580547 99.19456 
L 390.158873 104.363196 
L 390.737199 100.627466 
L 391.315525 108.202182 
L 391.89385 104.639728 
L 392.472176 106.823315 
L 393.050502 112.068957 
L 393.628828 99.296218 
L 394.207154 90.524627 
L 394.78548 92.665645 
L 395.363806 90.976465 
L 395.942132 90.049797 
L 396.520458 100.102271 
L 397.098784 94.806066 
L 397.67711 83.072429 
L 398.255435 116.325435 
L 398.833761 81.794305 
L 399.412087 77.88227 
L 399.990413 72.340777 
L 400.568739 69.214246 
L 401.147065 94.126694 
L 401.725391 88.20201 
L 402.303717 92.993224 
L 402.882043 91.386013 
L 403.460369 117.251723 
L 404.61702 81.711976 
L 405.195346 67.466736 
L 405.773672 96.416713 
L 406.351998 96.21462 
L 406.930324 114.475374 
L 407.50865 101.330901 
L 408.086976 119.760031 
L 408.665302 117.846471 
L 409.243628 112.558116 
L 409.821954 131.221177 
L 410.40028 130.863616 
L 410.978605 115.014906 
L 411.556931 112.803074 
L 412.135257 112.539231 
L 412.713583 102.986125 
L 413.291909 100.645513 
L 413.870235 110.767291 
L 414.448561 103.193344 
L 415.026887 115.648518 
L 415.605213 84.708656 
L 416.183539 108.008337 
L 416.761865 89.226567 
L 417.34019 114.944122 
L 417.918516 120.752658 
L 418.496842 119.452822 
L 419.075168 139.873429 
L 419.653494 140.156096 
L 420.23182 133.058285 
L 420.810146 131.840596 
L 421.388472 125.544268 
L 421.966798 115.802281 
L 422.545124 120.169649 
L 423.701775 101.135589 
L 424.280101 111.087798 
L 424.858427 97.005247 
L 425.436753 113.363409 
L 426.015079 111.56801 
L 426.593405 130.694024 
L 427.171731 100.608567 
L 427.750057 100.01083 
L 428.328383 85.516453 
L 428.906709 104.160105 
L 429.485035 114.491779 
L 430.06336 135.002373 
L 430.641686 131.384776 
L 431.220012 109.528364 
L 431.798338 122.53647 
L 432.376664 130.507875 
L 432.95499 117.930897 
L 433.533316 122.606272 
L 434.111642 122.263644 
L 434.689968 118.257987 
L 435.268294 123.176641 
L 435.84662 112.593287 
L 436.424945 106.464453 
L 437.003271 97.016726 
L 437.581597 92.149497 
L 438.159923 98.253255 
L 438.738249 91.87655 
L 439.316575 100.299502 
L 439.894901 100.302713 
L 440.473227 89.382537 
L 441.051553 102.846654 
L 441.629879 106.284591 
L 442.208205 105.100067 
L 442.78653 106.003426 
L 443.943182 99.80807 
L 445.099834 81.868502 
L 445.67816 96.62437 
L 446.256486 99.701045 
L 446.834812 104.928634 
L 447.413138 83.803412 
L 447.991464 83.754881 
L 448.56979 82.21088 
L 449.148115 90.777927 
L 449.726441 84.205027 
L 450.304767 87.353143 
L 450.883093 109.04563 
L 451.461419 100.260748 
L 452.039745 123.935928 
L 452.618071 91.781753 
L 453.196397 103.130962 
L 453.774723 106.240037 
L 454.353049 99.026231 
L 454.931374 128.814161 
L 455.5097 110.755966 
L 456.088026 106.355897 
L 456.666352 110.497188 
L 457.244678 124.514256 
L 457.823004 121.337153 
L 458.40133 100.411392 
L 458.979656 120.90031 
L 459.557982 119.096416 
L 460.714634 124.295765 
L 461.292959 126.343239 
L 461.871285 110.446678 
L 462.449611 117.922062 
L 463.027937 106.795712 
L 463.606263 82.693201 
L 464.184589 93.52612 
L 465.341241 87.94558 
L 465.919567 103.67843 
L 466.497893 66.525338 
L 467.076219 61.692377 
L 467.654544 74.527249 
L 468.23287 96.312642 
L 468.811196 80.389215 
L 469.389522 73.808896 
L 469.967848 76.443386 
L 470.546174 83.524713 
L 471.1245 80.771074 
L 471.702826 99.352013 
L 472.281152 85.830183 
L 472.859478 89.912753 
L 473.437804 55.378966 
L 474.016129 50.723954 
L 474.594455 60.068345 
L 475.172781 55.119154 
L 475.751107 85.909443 
L 476.329433 101.118943 
L 476.907759 97.514578 
L 477.486085 124.725227 
L 478.064411 103.921502 
L 478.642737 91.075894 
L 479.221063 124.332921 
L 479.799389 123.738781 
L 480.377714 99.930895 
L 480.95604 99.357839 
L 481.534366 96.120317 
L 482.691018 68.468675 
L 483.269344 71.740705 
L 483.84767 104.503691 
L 484.425996 114.419027 
L 485.004322 101.865995 
L 485.582648 100.100817 
L 486.160974 105.463004 
L 486.739299 101.745991 
L 487.317625 105.559627 
L 487.895951 125.020802 
L 488.474277 109.854124 
L 489.052603 106.128593 
L 489.630929 104.694678 
L 490.209255 111.807468 
L 490.787581 111.652036 
L 491.365907 98.098833 
L 492.522559 129.606421 
L 493.100884 112.163925 
L 493.67921 102.731595 
L 494.257536 109.899249 
L 494.835862 118.646111 
L 495.414188 116.8587 
L 495.992514 105.85901 
L 496.57084 116.72442 
L 497.149166 131.641137 
L 497.727492 104.73241 
L 498.305818 122.08739 
L 498.884144 125.216943 
L 499.462469 137.285162 
L 500.040795 138.804335 
L 500.619121 154.350813 
L 501.197447 120.958727 
L 501.775773 138.566159 
L 502.354099 123.909708 
L 502.932425 91.821872 
L 503.510751 116.53644 
L 504.089077 108.108885 
L 504.667403 95.111481 
L 505.245729 103.634504 
L 505.824054 114.053342 
L 506.40238 93.427192 
L 506.980706 114.494834 
L 507.559032 131.246018 
L 508.137358 138.24086 
L 508.715684 151.730656 
L 509.29401 160.639647 
L 510.450662 132.374871 
L 511.028988 109.385558 
L 511.607314 102.125408 
L 512.185639 106.53347 
L 512.763965 108.400013 
L 513.342291 116.818039 
L 513.920617 119.498247 
L 514.498943 110.416939 
L 515.077269 97.293424 
L 516.812247 140.343484 
L 517.390573 136.311859 
L 517.968899 122.291136 
L 518.547224 134.265806 
L 519.12555 120.466432 
L 519.703876 124.414906 
L 520.282202 125.900934 
L 520.860528 125.7327 
L 521.438854 123.907604 
L 522.01718 104.532138 
L 522.595506 115.549247 
L 523.173832 116.316229 
L 523.752158 110.284666 
L 524.330484 133.771809 
L 524.908809 126.064864 
L 525.487135 91.159036 
L 526.065461 91.920578 
L 526.643787 94.932004 
L 527.222113 100.130563 
L 527.800439 103.574394 
L 528.378765 99.569165 
L 528.957091 89.147399 
L 529.535417 93.220587 
L 530.113743 104.398113 
L 530.692069 105.531841 
L 531.270394 104.730525 
L 531.84872 110.358924 
L 532.427046 134.201753 
L 533.005372 127.592555 
L 533.583698 110.422832 
L 534.162024 104.352169 
L 534.74035 89.699281 
L 535.318676 95.93367 
L 535.897002 110.505567 
L 536.475328 109.88846 
L 537.053654 131.520897 
L 537.631979 135.80412 
L 538.210305 128.580416 
L 538.788631 147.950685 
L 539.366957 127.547338 
L 539.945283 116.56526 
L 540.523609 137.239331 
L 541.101935 128.005794 
L 542.258587 149.097654 
L 542.836913 143.41559 
L 543.415239 144.209343 
L 543.993564 125.236702 
L 544.57189 116.815992 
L 545.150216 82.845264 
L 546.306868 128.705279 
L 547.46352 117.819555 
L 548.041846 102.459297 
L 548.620172 119.31572 
L 549.198498 130.753203 
L 549.776824 118.184051 
L 550.355149 99.192142 
L 550.933475 86.579604 
L 551.511801 105.571749 
L 552.668453 99.231451 
L 553.246779 113.483007 
L 553.825105 95.281639 
L 554.403431 81.776026 
L 554.981757 93.554788 
L 555.560083 97.778981 
L 556.138409 82.199157 
L 556.716734 85.591537 
L 557.29506 91.548618 
L 557.873386 92.985954 
L 558.451712 91.514312 
L 559.030038 115.883394 
L 559.608364 97.124233 
L 560.18669 100.652442 
L 560.765016 96.855599 
L 561.343342 88.431563 
L 561.921668 116.443004 
L 562.499994 111.082704 
L 563.078319 108.424911 
L 563.656645 90.6149 
L 564.234971 90.8894 
L 564.813297 100.37686 
L 565.391623 94.687322 
L 565.969949 98.293713 
L 566.548275 103.922953 
L 567.126601 94.605543 
L 567.704927 94.250824 
L 568.283253 87.579688 
L 568.861579 93.084157 
L 569.439904 109.505201 
L 570.01823 71.608081 
L 570.596556 75.877657 
L 571.174882 75.363631 
L 571.753208 102.035463 
L 572.331534 96.243929 
L 572.90986 95.151601 
L 573.488186 91.325595 
L 574.066512 92.062299 
L 574.644838 124.121481 
L 575.223163 110.184722 
L 575.801489 90.813094 
L 576.379815 89.10762 
L 576.958141 108.88149 
L 577.536467 119.413601 
L 578.114793 121.610325 
L 578.693119 134.578561 
L 579.271445 105.71138 
L 579.849771 114.885876 
L 580.428097 117.207233 
L 581.006423 101.679417 
L 581.584748 127.144389 
L 582.163074 104.265202 
L 583.319726 125.113747 
L 583.898052 114.662628 
L 584.476378 102.031138 
L 585.054704 127.998247 
L 585.63303 120.716225 
L 586.211356 131.336045 
L 586.789682 116.348246 
L 587.368008 86.109402 
L 587.946333 109.201478 
L 588.524659 120.886429 
L 589.102985 129.679396 
L 589.681311 123.088832 
L 590.259637 129.829507 
L 590.837963 126.004168 
L 591.416289 117.252258 
L 591.994615 122.238627 
L 592.572941 117.416157 
L 593.151267 125.364011 
L 593.729593 126.026994 
L 594.307918 130.131247 
L 594.886244 114.104089 
L 595.46457 116.659562 
L 596.042896 129.263992 
L 596.621222 117.139457 
L 597.199548 99.567017 
L 597.777874 115.66858 
L 598.3562 111.856717 
L 598.934526 120.144508 
L 599.512852 116.91671 
L 600.091178 118.237853 
L 600.669503 107.482427 
L 601.247829 120.825749 
L 601.826155 138.239565 
L 602.404481 124.412458 
L 602.982807 125.629809 
L 603.561133 137.834304 
L 604.139459 145.655382 
L 604.717785 123.224375 
L 605.296111 123.864999 
L 605.874437 133.044543 
L 606.452763 110.688591 
L 607.031088 126.728244 
L 607.609414 130.670663 
L 608.18774 109.752647 
L 608.766066 136.713419 
L 609.344392 123.102468 
L 609.922718 120.195514 
L 610.501044 108.050998 
L 611.07937 126.210913 
L 611.657696 118.005719 
L 612.236022 112.889637 
L 612.814348 106.085717 
L 613.392673 131.687271 
L 613.970999 138.863265 
L 614.549325 116.947396 
L 615.127651 118.477581 
L 615.705977 125.954086 
L 616.284303 101.698372 
L 616.862629 83.066403 
L 617.440955 109.029721 
L 618.019281 87.283115 
L 618.597607 119.874302 
L 619.175933 91.260498 
L 619.754258 85.151451 
L 620.332584 84.479574 
L 620.91091 68.589526 
L 621.489236 71.354533 
L 622.067562 84.397049 
L 622.645888 72.465295 
L 623.224214 70.676179 
L 623.80254 87.186347 
L 624.380866 96.622495 
L 625.537518 61.914063 
L 626.115843 80.156385 
L 626.694169 82.77553 
L 627.272495 90.915189 
L 627.850821 71.006797 
L 628.429147 88.224136 
L 629.007473 123.431591 
L 629.585799 116.659449 
L 630.164125 114.929243 
L 630.742451 117.273048 
L 631.320777 95.110354 
L 631.899103 96.583762 
L 632.477428 103.763078 
L 633.055754 103.72674 
L 633.63408 99.809334 
L 634.212406 98.494505 
L 634.790732 110.975464 
L 635.369058 141.094195 
L 635.947384 130.89557 
L 636.52571 114.804049 
L 637.104036 92.182412 
L 637.682362 124.72702 
L 638.260688 122.228211 
L 638.839013 102.407169 
L 639.417339 107.547386 
L 639.995665 129.257291 
L 640.573991 113.266694 
L 641.152317 114.3054 
L 642.308969 123.933762 
L 642.887295 124.651146 
L 643.465621 110.907951 
L 644.043947 116.645639 
L 644.622273 124.365152 
L 645.200598 138.063863 
L 645.778924 126.50349 
L 646.35725 112.075793 
L 646.935576 122.863668 
L 647.513902 136.763924 
L 648.092228 131.050177 
L 648.670554 114.142579 
L 649.24888 141.110953 
L 649.827206 112.872971 
L 650.405532 102.819294 
L 651.562183 122.266724 
L 652.140509 104.745007 
L 653.297161 100.876916 
L 653.875487 114.935608 
L 654.453813 107.82545 
L 655.032139 111.159223 
L 655.610465 98.092671 
L 656.188791 90.475305 
L 656.767117 103.087284 
L 657.345443 89.579497 
L 657.923768 106.290141 
L 658.502094 101.512426 
L 659.08042 94.478079 
L 659.658746 93.848533 
L 660.237072 86.707238 
L 660.815398 92.047331 
L 662.550376 128.588679 
L 663.707028 87.569827 
L 664.285353 83.231807 
L 665.442005 91.640397 
L 666.020331 105.079029 
L 666.598657 101.140106 
L 667.755309 137.445081 
L 668.333635 125.243949 
L 668.911961 110.101703 
L 669.490287 107.520824 
L 670.068613 106.516818 
L 670.646938 105.032771 
L 671.225264 131.119566 
L 671.80359 121.530537 
L 672.381916 102.585535 
L 672.960242 113.939692 
L 673.538568 135.493549 
L 674.116894 104.122309 
L 674.69522 130.340141 
L 675.273546 137.312273 
L 675.851872 100.937362 
L 676.430198 92.199245 
L 677.586849 126.561282 
L 678.743501 108.201595 
L 679.321827 113.198636 
L 679.900153 105.29094 
L 680.478479 109.905046 
L 681.056805 105.677008 
L 681.635131 118.103625 
L 682.213457 120.279064 
L 682.791783 123.717941 
L 683.370108 135.497861 
L 684.52676 119.400162 
L 685.105086 102.635057 
L 685.683412 115.907885 
L 686.840064 106.923889 
L 687.41839 84.779867 
L 687.41839 84.779867 
" clip-path="url(#p4707574b34)" style="fill: none; stroke: #176678; stroke-width: 0.8; stroke-linecap: square"/>
   </g>
   <g id="patch_3">
    <path d="M 66.209615 166.314663 
L 66.209615 41.464314 
" style="fill: none; stroke: #000000; stroke-width: 0.8; stroke-linejoin: miter; stroke-linecap: square"/>
   </g>
   <g id="patch_4">
    <path d="M 66.209615 166.314663 
L 716.99976 166.314663 
" style="fill: none; stroke: #000000; stroke-width: 0.8; stroke-linejoin: miter; stroke-linecap: square"/>
   </g>
   <g id="text_6">
    <text style="font-weight: 700; font-size: 13px; font-family: 'DejaVu Sans'; text-anchor: start" x="66.209615" y="35.464314" transform="rotate(-0 66.209615 35.464314)">LA1 · Background contact</text>
   </g>
  </g>
  <g id="axes_2">
   <g id="patch_5">
    <path d="M 66.209615 316.543462 
L 716.99976 316.543462 
L 716.99976 191.693112 
L 66.209615 191.693112 
z
" style="fill: #ffffff"/>
   </g>
   <g id="matplotlib.axis_3">
    <g id="xtick_9">
     <g id="line2d_26">
      <path d="M 125.285607 316.543462 
L 125.285607 191.693112 
" clip-path="url(#pc31f933452)" style="fill: none; stroke: #b0b0b0; stroke-opacity: 0.15; stroke-width: 0.8; stroke-linecap: square"/>
     </g>
     <g id="line2d_27">
      <g>
       <use xlink:href="#m823bcb7d03" x="125.285607" y="316.543462" style="stroke: #000000; stroke-width: 0.8"/>
      </g>
     </g>
    </g>
    <g id="xtick_10">
     <g id="line2d_28">
      <path d="M 199.311323 316.543462 
L 199.311323 191.693112 
" clip-path="url(#pc31f933452)" style="fill: none; stroke: #b0b0b0; stroke-opacity: 0.15; stroke-width: 0.8; stroke-linecap: square"/>
     </g>
     <g id="line2d_29">
      <g>
       <use xlink:href="#m823bcb7d03" x="199.311323" y="316.543462" style="stroke: #000000; stroke-width: 0.8"/>
      </g>
     </g>
    </g>
    <g id="xtick_11">
     <g id="line2d_30">
      <path d="M 273.337039 316.543462 
L 273.337039 191.693112 
" clip-path="url(#pc31f933452)" style="fill: none; stroke: #b0b0b0; stroke-opacity: 0.15; stroke-width: 0.8; stroke-linecap: square"/>
     </g>
     <g id="line2d_31">
      <g>
       <use xlink:href="#m823bcb7d03" x="273.337039" y="316.543462" style="stroke: #000000; stroke-width: 0.8"/>
      </g>
     </g>
    </g>
    <g id="xtick_12">
     <g id="line2d_32">
      <path d="M 347.362755 316.543462 
L 347.362755 191.693112 
" clip-path="url(#pc31f933452)" style="fill: none; stroke: #b0b0b0; stroke-opacity: 0.15; stroke-width: 0.8; stroke-linecap: square"/>
     </g>
     <g id="line2d_33">
      <g>
       <use xlink:href="#m823bcb7d03" x="347.362755" y="316.543462" style="stroke: #000000; stroke-width: 0.8"/>
      </g>
     </g>
    </g>
    <g id="xtick_13">
     <g id="line2d_34">
      <path d="M 421.388472 316.543462 
L 421.388472 191.693112 
" clip-path="url(#pc31f933452)" style="fill: none; stroke: #b0b0b0; stroke-opacity: 0.15; stroke-width: 0.8; stroke-linecap: square"/>
     </g>
     <g id="line2d_35">
      <g>
       <use xlink:href="#m823bcb7d03" x="421.388472" y="316.543462" style="stroke: #000000; stroke-width: 0.8"/>
      </g>
     </g>
    </g>
    <g id="xtick_14">
     <g id="line2d_36">
      <path d="M 495.414188 316.543462 
L 495.414188 191.693112 
" clip-path="url(#pc31f933452)" style="fill: none; stroke: #b0b0b0; stroke-opacity: 0.15; stroke-width: 0.8; stroke-linecap: square"/>
     </g>
     <g id="line2d_37">
      <g>
       <use xlink:href="#m823bcb7d03" x="495.414188" y="316.543462" style="stroke: #000000; stroke-width: 0.8"/>
      </g>
     </g>
    </g>
    <g id="xtick_15">
     <g id="line2d_38">
      <path d="M 569.439904 316.543462 
L 569.439904 191.693112 
" clip-path="url(#pc31f933452)" style="fill: none; stroke: #b0b0b0; stroke-opacity: 0.15; stroke-width: 0.8; stroke-linecap: square"/>
     </g>
     <g id="line2d_39">
      <g>
       <use xlink:href="#m823bcb7d03" x="569.439904" y="316.543462" style="stroke: #000000; stroke-width: 0.8"/>
      </g>
     </g>
    </g>
    <g id="xtick_16">
     <g id="line2d_40">
      <path d="M 643.465621 316.543462 
L 643.465621 191.693112 
" clip-path="url(#pc31f933452)" style="fill: none; stroke: #b0b0b0; stroke-opacity: 0.15; stroke-width: 0.8; stroke-linecap: square"/>
     </g>
     <g id="line2d_41">
      <g>
       <use xlink:href="#m823bcb7d03" x="643.465621" y="316.543462" style="stroke: #000000; stroke-width: 0.8"/>
      </g>
     </g>
    </g>
   </g>
   <g id="matplotlib.axis_4">
    <g id="ytick_5">
     <g id="line2d_42">
      <path d="M 66.209615 298.871983 
L 716.99976 298.871983 
" clip-path="url(#pc31f933452)" style="fill: none; stroke: #b0b0b0; stroke-opacity: 0.15; stroke-width: 0.8; stroke-linecap: square"/>
     </g>
     <g id="line2d_43">
      <g>
       <use xlink:href="#mdbd8738e15" x="66.209615" y="298.871983" style="stroke: #000000; stroke-width: 0.8"/>
      </g>
     </g>
     <g id="text_7">
      <text style="font-size: 12px; font-family: 'DejaVu Sans'; text-anchor: end" x="59.209615" y="303.431045" transform="rotate(-0 59.209615 303.431045)">−300</text>
     </g>
    </g>
    <g id="ytick_6">
     <g id="line2d_44">
      <path d="M 66.209615 269.089312 
L 716.99976 269.089312 
" clip-path="url(#pc31f933452)" style="fill: none; stroke: #b0b0b0; stroke-opacity: 0.15; stroke-width: 0.8; stroke-linecap: square"/>
     </g>
     <g id="line2d_45">
      <g>
       <use xlink:href="#mdbd8738e15" x="66.209615" y="269.089312" style="stroke: #000000; stroke-width: 0.8"/>
      </g>
     </g>
     <g id="text_8">
      <text style="font-size: 12px; font-family: 'DejaVu Sans'; text-anchor: end" x="59.209615" y="273.648375" transform="rotate(-0 59.209615 273.648375)">−200</text>
     </g>
    </g>
    <g id="ytick_7">
     <g id="line2d_46">
      <path d="M 66.209615 239.306642 
L 716.99976 239.306642 
" clip-path="url(#pc31f933452)" style="fill: none; stroke: #b0b0b0; stroke-opacity: 0.15; stroke-width: 0.8; stroke-linecap: square"/>
     </g>
     <g id="line2d_47">
      <g>
       <use xlink:href="#mdbd8738e15" x="66.209615" y="239.306642" style="stroke: #000000; stroke-width: 0.8"/>
      </g>
     </g>
     <g id="text_9">
      <text style="font-size: 12px; font-family: 'DejaVu Sans'; text-anchor: end" x="59.209615" y="243.865704" transform="rotate(-0 59.209615 243.865704)">−100</text>
     </g>
    </g>
    <g id="ytick_8">
     <g id="line2d_48">
      <path d="M 66.209615 209.523971 
L 716.99976 209.523971 
" clip-path="url(#pc31f933452)" style="fill: none; stroke: #b0b0b0; stroke-opacity: 0.15; stroke-width: 0.8; stroke-linecap: square"/>
     </g>
     <g id="line2d_49">
      <g>
       <use xlink:href="#mdbd8738e15" x="66.209615" y="209.523971" style="stroke: #000000; stroke-width: 0.8"/>
      </g>
     </g>
     <g id="text_10">
      <text style="font-size: 12px; font-family: 'DejaVu Sans'; text-anchor: end" x="59.209615" y="214.083033" transform="rotate(-0 59.209615 214.083033)">0</text>
     </g>
    </g>
    <g id="text_11">
     <text style="font-size: 12px; font-family: 'DejaVu Sans'; text-anchor: middle" x="19.753365" y="254.118287" transform="rotate(-90 19.753365 254.118287)">µV</text>
    </g>
   </g>
   <g id="line2d_50">
    <path d="M 95.790985 206.468732 
L 96.369311 213.963671 
L 97.525963 206.03069 
L 98.104289 208.406069 
L 98.682615 218.389626 
L 99.260941 217.35541 
L 99.839267 217.389445 
L 100.417592 218.410487 
L 100.995918 221.27907 
L 102.15257 210.570764 
L 102.730896 211.745715 
L 103.309222 208.653979 
L 103.887548 212.384138 
L 104.465874 213.811935 
L 105.0442 213.508375 
L 105.622526 208.956043 
L 106.200852 211.868083 
L 106.779177 217.540944 
L 107.357503 218.49374 
L 107.935829 214.030884 
L 108.514155 215.534728 
L 109.670807 213.943725 
L 110.249133 210.917701 
L 110.827459 214.678594 
L 111.405785 214.824262 
L 111.984111 215.982659 
L 112.562437 212.979819 
L 113.140762 213.726427 
L 113.719088 209.202891 
L 114.297414 216.870487 
L 114.87574 216.396636 
L 115.454066 212.152235 
L 116.032392 212.758442 
L 116.610718 215.32574 
L 117.189044 212.200352 
L 117.76737 213.585255 
L 118.345696 212.512838 
L 119.502347 217.221945 
L 120.080673 214.252304 
L 120.658999 213.466944 
L 121.237325 212.893624 
L 121.815651 216.579376 
L 122.393977 216.133231 
L 122.972303 217.940742 
L 123.550629 213.910589 
L 124.128955 212.745881 
L 124.707281 215.871562 
L 125.285607 215.964009 
L 125.863932 216.65288 
L 126.442258 216.927034 
L 127.020584 217.898391 
L 127.59891 218.006222 
L 128.177236 214.641851 
L 128.755562 213.726524 
L 129.912214 210.562457 
L 130.49054 213.643618 
L 131.068866 212.678913 
L 131.647192 212.941744 
L 132.225517 215.826171 
L 132.803843 216.339882 
L 133.382169 221.958156 
L 133.960495 215.732949 
L 134.538821 223.688968 
L 135.117147 219.163942 
L 135.695473 218.652707 
L 136.852125 212.457606 
L 137.430451 210.493624 
L 138.008777 216.838728 
L 138.587102 211.347481 
L 139.165428 212.792386 
L 139.743754 212.597907 
L 140.32208 207.109004 
L 140.900406 214.190364 
L 141.478732 214.46907 
L 142.057058 214.487324 
L 142.635384 211.266881 
L 143.21371 210.256763 
L 143.792036 209.73521 
L 144.370362 215.673764 
L 144.948687 211.046424 
L 145.527013 213.541888 
L 146.105339 214.701211 
L 146.683665 208.735145 
L 147.261991 212.390324 
L 147.840317 211.485362 
L 148.418643 206.962933 
L 148.996969 209.016395 
L 149.575295 212.424753 
L 150.153621 211.203012 
L 150.731947 214.640424 
L 151.310272 210.261523 
L 151.888598 213.933685 
L 152.466924 216.583493 
L 153.04525 211.332644 
L 153.623576 215.436424 
L 154.201902 212.976059 
L 154.780228 217.373345 
L 155.358554 211.539177 
L 155.93688 215.659387 
L 156.515206 218.256203 
L 157.093532 213.552161 
L 158.250183 222.169477 
L 158.828509 216.787081 
L 159.406835 218.804619 
L 160.563487 219.324055 
L 161.141813 215.020193 
L 161.720139 222.323274 
L 162.876791 211.652127 
L 163.455117 216.160033 
L 164.033442 213.686606 
L 164.611768 221.122393 
L 165.190094 218.637058 
L 165.76842 214.600132 
L 166.346746 216.422194 
L 166.925072 212.824315 
L 167.503398 215.024822 
L 168.081724 221.691963 
L 168.66005 214.975708 
L 169.238376 221.110201 
L 169.816702 218.794831 
L 170.395027 220.182611 
L 170.973353 216.537333 
L 171.551679 215.936469 
L 172.130005 217.165774 
L 172.708331 215.984775 
L 173.286657 212.419082 
L 173.864983 210.466815 
L 174.443309 210.377955 
L 175.021635 214.141764 
L 175.599961 206.928197 
L 176.178287 211.353723 
L 176.756612 210.126053 
L 177.334938 212.70519 
L 177.913264 205.538593 
L 178.49159 208.830004 
L 179.069916 210.713471 
L 179.648242 205.634364 
L 180.804894 211.909346 
L 181.38322 218.177671 
L 181.961546 217.594138 
L 182.539872 214.706346 
L 183.118197 209.001869 
L 183.696523 213.875745 
L 184.274849 215.91129 
L 184.853175 213.552632 
L 185.431501 217.199423 
L 186.009827 215.601869 
L 186.588153 215.944814 
L 187.166479 211.961846 
L 187.744805 209.335075 
L 188.323131 217.757141 
L 188.901457 215.072835 
L 189.479782 218.161356 
L 190.058108 215.015883 
L 190.636434 214.412188 
L 191.21476 215.796973 
L 191.793086 215.018613 
L 192.371412 219.233808 
L 192.949738 212.836982 
L 193.528064 212.951718 
L 194.684716 219.115377 
L 195.263042 219.005551 
L 195.841367 216.058822 
L 196.419693 215.67592 
L 196.998019 217.672142 
L 197.576345 215.875192 
L 198.154671 217.037729 
L 198.732997 227.712244 
L 199.311323 216.604363 
L 199.889649 215.425716 
L 200.467975 217.693986 
L 201.046301 219.308453 
L 201.624627 215.883888 
L 202.202952 217.483656 
L 202.781278 222.196979 
L 203.359604 216.753131 
L 203.93793 216.588991 
L 205.094582 222.052959 
L 205.672908 219.539921 
L 206.251234 222.106222 
L 206.82956 222.224276 
L 207.407886 221.70699 
L 207.986212 219.577285 
L 208.564537 213.173671 
L 209.142863 216.804914 
L 209.721189 217.998217 
L 210.299515 218.041267 
L 210.877841 222.874009 
L 211.456167 220.263406 
L 212.034493 214.100101 
L 212.612819 216.945967 
L 213.191145 216.170665 
L 213.769471 213.151343 
L 214.347796 218.727521 
L 214.926122 220.056974 
L 215.504448 219.808304 
L 216.082774 219.284642 
L 216.6611 222.000834 
L 217.239426 216.83967 
L 218.396078 223.87964 
L 218.974404 222.394955 
L 219.55273 219.681107 
L 220.131056 218.110673 
L 220.709381 217.938518 
L 221.287707 214.049633 
L 221.866033 216.003937 
L 223.022685 219.265091 
L 223.601011 218.345249 
L 224.179337 217.129071 
L 224.757663 219.17383 
L 225.335989 214.840534 
L 225.914315 219.539208 
L 226.492641 213.799277 
L 227.070966 211.041324 
L 227.649292 209.243571 
L 228.227618 208.602566 
L 229.38427 216.811189 
L 229.962596 215.029838 
L 230.540922 209.979864 
L 231.119248 210.867986 
L 231.697574 217.886963 
L 232.2759 218.962464 
L 232.854226 216.999024 
L 233.432551 218.028646 
L 234.010877 217.504129 
L 234.589203 220.02375 
L 235.167529 220.272623 
L 235.745855 218.945283 
L 236.324181 221.135456 
L 236.902507 214.229345 
L 237.480833 216.673336 
L 238.059159 213.58062 
L 238.637485 207.668701 
L 239.215811 209.579898 
L 239.794136 207.559732 
L 240.372462 215.572535 
L 240.950788 208.264397 
L 241.529114 218.460554 
L 242.10744 214.452093 
L 242.685766 220.317214 
L 243.264092 215.376713 
L 244.420744 222.185816 
L 244.99907 219.950573 
L 245.577396 219.313157 
L 246.155721 216.866136 
L 246.734047 220.251908 
L 247.312373 214.594254 
L 247.890699 213.056458 
L 248.469025 217.296028 
L 249.047351 219.010624 
L 249.625677 218.181055 
L 250.204003 219.137153 
L 250.782329 216.10476 
L 251.360655 211.155871 
L 251.938981 210.293966 
L 253.095632 216.444868 
L 253.673958 211.469436 
L 254.252284 213.040102 
L 254.83061 208.640432 
L 255.408936 217.290607 
L 255.987262 216.405703 
L 256.565588 216.761361 
L 257.143914 213.063418 
L 257.72224 215.392344 
L 258.300566 212.776362 
L 258.878891 214.270073 
L 259.457217 214.500974 
L 260.035543 219.133441 
L 260.613869 215.267102 
L 261.192195 212.542408 
L 261.770521 215.228014 
L 262.348847 211.496036 
L 262.927173 218.064285 
L 263.505499 220.515346 
L 264.083825 218.486768 
L 264.662151 219.240472 
L 265.240476 217.916526 
L 265.818802 215.725146 
L 266.397128 214.465811 
L 266.975454 217.706039 
L 267.55378 219.198593 
L 268.132106 221.244502 
L 268.710432 218.242871 
L 269.288758 219.049687 
L 269.867084 212.92596 
L 270.44541 215.103794 
L 271.023736 213.413973 
L 272.180387 215.385984 
L 272.758713 217.94996 
L 273.337039 216.926772 
L 273.915365 213.770244 
L 274.493691 216.203796 
L 275.072017 217.529755 
L 275.650343 214.256376 
L 276.228669 216.977419 
L 276.806995 218.486602 
L 277.385321 214.537447 
L 277.963646 212.76751 
L 279.120298 202.987594 
L 279.698624 207.738054 
L 280.27695 211.444961 
L 280.855276 220.040543 
L 281.433602 218.472098 
L 282.011928 219.180069 
L 282.590254 216.107881 
L 283.16858 217.612017 
L 283.746906 209.969293 
L 284.325231 213.43338 
L 284.903557 210.179657 
L 285.481883 216.039932 
L 286.060209 219.748679 
L 286.638535 217.555024 
L 287.216861 217.749972 
L 287.795187 213.639809 
L 289.530165 207.869726 
L 290.108491 212.434287 
L 290.686816 213.180659 
L 291.265142 206.49354 
L 291.843468 206.618677 
L 292.421794 207.681835 
L 293.578446 198.214482 
L 294.735098 209.420397 
L 295.313424 206.214123 
L 295.89175 204.055138 
L 296.470076 202.651534 
L 297.048401 201.962914 
L 297.626727 205.424296 
L 298.205053 201.969231 
L 298.783379 202.644651 
L 299.361705 200.090731 
L 299.940031 206.17097 
L 300.518357 206.332666 
L 301.096683 202.945948 
L 301.675009 205.715368 
L 302.253335 209.203389 
L 302.831661 211.955532 
L 303.409986 207.808511 
L 303.988312 198.447838 
L 304.566638 207.287797 
L 305.144964 211.314173 
L 305.72329 202.81986 
L 306.301616 204.911538 
L 306.879942 201.337467 
L 307.458268 207.2811 
L 308.036594 205.2945 
L 308.61492 206.163791 
L 309.771571 214.145296 
L 310.349897 208.586327 
L 310.928223 205.10389 
L 312.084875 209.538419 
L 312.663201 210.466006 
L 313.241527 206.101483 
L 313.819853 206.1335 
L 314.398179 211.479736 
L 314.976505 213.61668 
L 315.554831 218.35231 
L 316.133156 206.705204 
L 316.711482 206.320484 
L 317.289808 213.142665 
L 317.868134 208.928362 
L 318.44646 201.182856 
L 319.024786 207.004338 
L 319.603112 209.722162 
L 320.181438 209.203618 
L 320.759764 209.946399 
L 321.33809 208.821447 
L 321.916416 206.514823 
L 322.494741 208.825624 
L 323.651393 206.63717 
L 324.229719 210.072317 
L 324.808045 210.882216 
L 325.386371 206.287365 
L 325.964697 208.582734 
L 326.543023 208.605925 
L 327.121349 208.331443 
L 327.699675 209.103618 
L 328.278001 206.882591 
L 328.856326 210.573405 
L 329.434652 207.381496 
L 330.012978 214.832227 
L 330.591304 211.744654 
L 331.747956 213.940977 
L 332.326282 221.873927 
L 332.904608 220.924727 
L 333.482934 214.614409 
L 334.06126 218.609471 
L 334.639585 214.454049 
L 335.217911 214.051459 
L 335.796237 211.084276 
L 336.374563 213.732019 
L 336.952889 209.189589 
L 337.531215 210.268414 
L 338.109541 210.624555 
L 338.687867 214.964948 
L 339.266193 210.630421 
L 339.844519 211.655719 
L 340.422845 213.215655 
L 341.579496 211.035148 
L 342.157822 204.922126 
L 342.736148 212.414731 
L 343.314474 208.357174 
L 343.8928 208.432066 
L 344.471126 207.31756 
L 345.049452 207.327683 
L 345.627778 207.03232 
L 346.206104 204.454031 
L 346.78443 203.833839 
L 347.362755 208.595143 
L 347.941081 205.863845 
L 348.519407 206.153589 
L 349.097733 213.536923 
L 349.676059 213.220464 
L 350.254385 211.756245 
L 350.832711 208.89998 
L 351.411037 212.869047 
L 351.989363 212.510124 
L 352.567689 218.132818 
L 353.146015 216.124899 
L 353.72434 210.87997 
L 354.302666 207.243423 
L 354.880992 207.746973 
L 355.459318 206.09396 
L 356.037644 207.199557 
L 356.61597 208.749531 
L 357.194296 216.495689 
L 357.772622 213.406044 
L 358.350948 212.674942 
L 358.929274 215.204098 
L 359.5076 212.567631 
L 360.085925 207.716834 
L 360.664251 209.4058 
L 361.242577 218.68223 
L 361.820903 222.288269 
L 362.399229 216.500136 
L 362.977555 220.72194 
L 363.555881 211.650247 
L 364.134207 214.769904 
L 364.712533 222.365132 
L 365.869185 216.450136 
L 367.025836 218.033107 
L 367.604162 223.997569 
L 368.182488 225.583753 
L 368.760814 225.157524 
L 369.33914 218.082417 
L 369.917466 217.725254 
L 371.074118 215.060313 
L 371.652444 210.782298 
L 372.23077 217.987246 
L 372.809095 215.85156 
L 373.387421 206.854958 
L 373.965747 217.932147 
L 374.544073 214.147399 
L 375.122399 215.780858 
L 375.700725 214.331151 
L 376.279051 204.362057 
L 376.857377 209.1804 
L 377.435703 209.50042 
L 378.014029 209.524772 
L 378.592355 215.004667 
L 379.17068 210.068877 
L 379.749006 210.480294 
L 380.327332 206.066128 
L 381.483984 214.967942 
L 382.06231 212.634367 
L 382.640636 213.942242 
L 383.218962 214.63705 
L 383.797288 213.077815 
L 384.375614 213.803155 
L 384.95394 217.477714 
L 385.532265 223.691291 
L 386.110591 220.18255 
L 386.688917 222.667508 
L 387.267243 228.947987 
L 387.845569 239.45036 
L 388.423895 241.299042 
L 389.002221 254.986818 
L 389.580547 274.358327 
L 390.158873 288.694252 
L 390.737199 288.956495 
L 391.315525 302.758027 
L 391.89385 310.868446 
L 392.472176 293.900898 
L 393.050502 285.504942 
L 393.628828 274.890781 
L 394.207154 261.902747 
L 394.78548 255.596098 
L 395.363806 236.180433 
L 395.942132 222.769069 
L 396.520458 222.257329 
L 397.098784 217.833292 
L 397.67711 221.431689 
L 398.255435 219.43641 
L 398.833761 216.913688 
L 399.412087 217.303434 
L 399.990413 211.295657 
L 400.568739 209.584896 
L 401.147065 209.456949 
L 401.725391 212.825134 
L 402.303717 212.577612 
L 403.460369 214.580442 
L 404.038695 209.193958 
L 404.61702 211.715703 
L 405.195346 208.586397 
L 405.773672 214.936242 
L 406.351998 214.56441 
L 406.930324 214.806401 
L 407.50865 207.342931 
L 408.086976 210.860442 
L 408.665302 209.08493 
L 409.243628 211.959027 
L 410.40028 210.970333 
L 410.978605 213.108632 
L 412.135257 215.230151 
L 412.713583 212.797755 
L 413.291909 217.263059 
L 413.870235 214.78128 
L 414.448561 214.108439 
L 415.026887 218.204258 
L 415.605213 220.948415 
L 416.183539 224.335516 
L 416.761865 220.543059 
L 417.34019 218.781575 
L 417.918516 220.639149 
L 418.496842 216.048628 
L 419.075168 218.237123 
L 419.653494 215.623291 
L 420.23182 215.461159 
L 420.810146 215.647579 
L 421.388472 218.113824 
L 421.966798 217.013383 
L 422.545124 214.487721 
L 423.12345 209.793172 
L 423.701775 211.175632 
L 424.280101 209.280361 
L 424.858427 208.837022 
L 425.436753 214.608002 
L 426.015079 223.529216 
L 426.593405 220.198465 
L 427.171731 215.915364 
L 427.750057 220.562021 
L 428.328383 220.727817 
L 429.485035 234.266595 
L 430.06336 237.279915 
L 431.798338 281.146396 
L 432.376664 292.632196 
L 432.95499 293.890431 
L 433.533316 295.991905 
L 434.111642 292.228773 
L 434.689968 287.064242 
L 435.268294 273.340011 
L 435.84662 264.940469 
L 436.424945 250.878101 
L 437.003271 243.04762 
L 438.159923 216.77369 
L 438.738249 213.342058 
L 439.316575 207.590781 
L 439.894901 206.716263 
L 440.473227 208.487379 
L 441.051553 210.933018 
L 441.629879 216.086835 
L 442.208205 216.068305 
L 442.78653 208.964411 
L 443.364856 210.709893 
L 443.943182 209.885571 
L 444.521508 208.517777 
L 445.099834 212.543212 
L 445.67816 204.768015 
L 446.256486 209.434108 
L 446.834812 208.081075 
L 447.413138 212.624794 
L 447.991464 206.779681 
L 448.56979 208.395418 
L 449.148115 207.843894 
L 449.726441 205.882073 
L 450.304767 208.945107 
L 450.883093 211.343542 
L 451.461419 206.601885 
L 452.039745 209.436178 
L 452.618071 207.999014 
L 453.196397 216.532172 
L 453.774723 214.070563 
L 454.353049 207.352251 
L 454.931374 210.132312 
L 455.5097 209.738751 
L 456.088026 214.206652 
L 456.666352 204.84812 
L 457.244678 205.363958 
L 457.823004 208.169076 
L 458.40133 212.229041 
L 458.979656 207.373367 
L 459.557982 207.720693 
L 460.136308 212.551295 
L 460.714634 207.838554 
L 461.292959 210.720238 
L 461.871285 214.887923 
L 462.449611 211.143478 
L 463.027937 210.365647 
L 463.606263 211.498123 
L 464.184589 213.750466 
L 464.762915 214.219192 
L 465.341241 207.087117 
L 465.919567 213.130818 
L 467.076219 216.90991 
L 467.654544 213.696793 
L 468.23287 217.469131 
L 468.811196 215.016928 
L 469.389522 216.921637 
L 469.967848 210.349019 
L 470.546174 214.863748 
L 471.1245 215.004195 
L 471.702826 212.974731 
L 472.281152 210.105865 
L 472.859478 211.377799 
L 473.437804 213.076206 
L 474.016129 209.038276 
L 474.594455 209.276546 
L 475.172781 211.376854 
L 475.751107 208.022109 
L 476.329433 213.073825 
L 476.907759 213.794352 
L 477.486085 209.954731 
L 478.064411 208.669832 
L 478.642737 206.096628 
L 479.221063 209.227964 
L 479.799389 210.28204 
L 480.377714 206.906434 
L 480.95604 205.808949 
L 481.534366 207.78952 
L 482.112692 208.48401 
L 483.269344 200.311831 
L 483.84767 210.21512 
L 484.425996 212.950922 
L 485.004322 211.33641 
L 485.582648 206.587235 
L 486.160974 210.011537 
L 486.739299 210.828786 
L 487.317625 212.605595 
L 487.895951 211.988345 
L 488.474277 213.771399 
L 489.052603 212.529112 
L 489.630929 214.203532 
L 490.209255 219.396528 
L 490.787581 218.811351 
L 491.365907 219.655783 
L 492.522559 219.12915 
L 493.100884 210.567029 
L 493.67921 209.381155 
L 494.257536 217.756729 
L 494.835862 209.941699 
L 495.414188 209.758947 
L 495.992514 212.026457 
L 496.57084 213.807008 
L 497.727492 220.404829 
L 498.305818 216.296189 
L 498.884144 215.398078 
L 499.462469 215.092149 
L 500.040795 215.751684 
L 500.619121 215.153291 
L 501.197447 216.746252 
L 501.775773 214.383612 
L 502.354099 217.070597 
L 502.932425 217.499561 
L 503.510751 211.971333 
L 504.089077 211.853625 
L 504.667403 212.432401 
L 505.245729 210.582869 
L 505.824054 212.023415 
L 506.40238 211.128488 
L 506.980706 211.629377 
L 507.559032 213.74902 
L 508.137358 212.296533 
L 508.715684 220.216977 
L 509.29401 214.96507 
L 509.872336 221.164692 
L 510.450662 221.582632 
L 511.028988 217.799818 
L 511.607314 210.129764 
L 512.185639 213.422348 
L 513.342291 210.311393 
L 513.920617 205.118851 
L 514.498943 212.780165 
L 515.077269 207.308905 
L 515.655595 209.565097 
L 516.233921 213.436784 
L 516.812247 206.583654 
L 517.968899 215.252322 
L 518.547224 216.343969 
L 519.12555 215.712085 
L 519.703876 212.507814 
L 520.282202 207.788135 
L 520.860528 208.322984 
L 521.438854 206.900445 
L 522.01718 210.458204 
L 522.595506 207.224939 
L 523.173832 212.333379 
L 523.752158 210.140682 
L 524.330484 210.315511 
L 524.908809 207.877526 
L 525.487135 208.917525 
L 526.065461 208.21178 
L 526.643787 212.762885 
L 527.222113 213.848539 
L 527.800439 215.883056 
L 528.378765 216.121081 
L 528.957091 214.413961 
L 529.535417 211.198554 
L 530.113743 210.236054 
L 530.692069 206.96818 
L 531.270394 211.580466 
L 531.84872 212.16019 
L 532.427046 214.047875 
L 533.005372 219.826995 
L 533.583698 221.711235 
L 534.162024 213.716781 
L 534.74035 213.470672 
L 535.318676 218.172668 
L 535.897002 212.203244 
L 536.475328 220.083452 
L 537.053654 214.03077 
L 537.631979 216.089726 
L 538.210305 214.659835 
L 538.788631 212.69218 
L 539.366957 206.776681 
L 539.945283 212.22628 
L 540.523609 210.720861 
L 541.101935 211.807246 
L 541.680261 213.695273 
L 542.258587 215.001778 
L 542.836913 217.907594 
L 543.415239 216.439781 
L 543.993564 213.427196 
L 544.57189 218.133713 
L 545.150216 216.985174 
L 545.728542 216.146751 
L 546.306868 216.410802 
L 546.885194 213.382247 
L 547.46352 213.289998 
L 548.041846 216.368941 
L 549.198498 210.515122 
L 549.776824 209.810098 
L 550.355149 220.790685 
L 550.933475 216.831772 
L 551.511801 217.996226 
L 552.090127 219.727281 
L 553.246779 239.559418 
L 554.403431 266.030526 
L 554.981757 274.739051 
L 556.138409 301.525542 
L 556.716734 304.44842 
L 557.29506 303.953656 
L 557.873386 302.559786 
L 558.451712 281.826773 
L 559.608364 252.807981 
L 560.18669 245.181909 
L 561.921668 217.288173 
L 563.078319 214.673861 
L 563.656645 219.519218 
L 564.234971 215.40447 
L 564.813297 212.913628 
L 565.391623 214.186815 
L 565.969949 214.320952 
L 566.548275 210.955884 
L 567.126601 211.892508 
L 567.704927 212.58257 
L 568.283253 214.508407 
L 569.439904 208.150834 
L 570.01823 209.684457 
L 570.596556 206.907063 
L 571.174882 213.412271 
L 571.753208 209.581605 
L 572.331534 212.489135 
L 572.90986 219.634407 
L 573.488186 214.147622 
L 574.066512 213.261601 
L 574.644838 215.164095 
L 575.223163 219.540662 
L 575.801489 218.698186 
L 576.379815 215.060384 
L 576.958141 214.108939 
L 577.536467 214.942316 
L 578.114793 211.491117 
L 578.693119 209.378347 
L 579.271445 209.351798 
L 579.849771 214.166505 
L 580.428097 204.540076 
L 581.006423 207.86049 
L 581.584748 208.304914 
L 582.163074 205.657173 
L 582.7414 206.074824 
L 583.319726 210.610884 
L 583.898052 207.098824 
L 584.476378 211.56151 
L 585.054704 205.408035 
L 585.63303 203.456663 
L 586.211356 204.067068 
L 586.789682 207.954626 
L 587.368008 201.430216 
L 587.946333 207.021166 
L 588.524659 207.066318 
L 589.102985 206.235469 
L 589.681311 207.624471 
L 590.259637 205.622167 
L 590.837963 204.951876 
L 591.416289 201.885263 
L 591.994615 201.402349 
L 592.572941 206.575969 
L 593.151267 207.977838 
L 594.886244 197.368128 
L 595.46457 204.457428 
L 596.042896 207.207872 
L 596.621222 203.303951 
L 597.199548 207.486949 
L 597.777874 208.964212 
L 598.3562 209.682664 
L 598.934526 211.223767 
L 599.512852 212.093143 
L 600.091178 206.674165 
L 600.669503 208.6746 
L 601.247829 205.471317 
L 601.826155 207.004009 
L 602.404481 207.643573 
L 602.982807 201.145404 
L 603.561133 201.297612 
L 604.139459 200.890326 
L 604.717785 206.662591 
L 605.296111 208.088987 
L 605.874437 197.542151 
L 606.452763 206.849191 
L 607.031088 204.071945 
L 607.609414 204.044688 
L 608.18774 208.346425 
L 608.766066 201.811631 
L 609.344392 201.263729 
L 609.922718 201.392542 
L 610.501044 207.34888 
L 611.07937 203.328355 
L 611.657696 209.56293 
L 612.236022 207.886576 
L 612.814348 207.30918 
L 613.392673 209.447445 
L 613.970999 212.486935 
L 614.549325 206.577093 
L 615.127651 207.23115 
L 615.705977 204.678867 
L 616.284303 202.666125 
L 616.862629 207.360382 
L 617.440955 209.4431 
L 618.019281 210.275929 
L 618.597607 208.997238 
L 619.175933 211.742733 
L 620.332584 207.995259 
L 620.91091 212.242322 
L 621.489236 217.695496 
L 622.067562 214.571349 
L 622.645888 212.388384 
L 623.224214 214.067324 
L 623.80254 214.362314 
L 624.380866 213.447251 
L 624.959192 207.912516 
L 625.537518 205.251629 
L 626.115843 213.282755 
L 626.694169 216.564411 
L 627.272495 218.489955 
L 627.850821 216.402977 
L 628.429147 204.505229 
L 629.007473 211.713106 
L 629.585799 215.872652 
L 630.164125 216.681286 
L 630.742451 218.006845 
L 631.320777 213.289801 
L 631.899103 213.318522 
L 632.477428 215.689543 
L 633.055754 213.33378 
L 633.63408 213.864279 
L 634.212406 212.342094 
L 634.790732 209.215709 
L 635.369058 208.761926 
L 635.947384 213.113233 
L 636.52571 210.175733 
L 637.104036 216.080035 
L 637.682362 220.194253 
L 638.260688 214.244897 
L 639.417339 212.521987 
L 639.995665 212.306898 
L 640.573991 210.088799 
L 641.152317 212.627453 
L 641.730643 208.463332 
L 642.308969 213.270869 
L 642.887295 211.752984 
L 643.465621 212.810416 
L 644.043947 212.58121 
L 644.622273 211.618975 
L 645.200598 212.22709 
L 645.778924 208.58813 
L 646.35725 208.077842 
L 646.935576 208.786349 
L 647.513902 210.171019 
L 648.092228 210.800344 
L 648.670554 216.867329 
L 649.24888 213.279874 
L 649.827206 212.762677 
L 650.405532 212.808531 
L 650.983858 213.260379 
L 652.140509 221.562742 
L 652.718835 218.356187 
L 653.297161 220.378581 
L 653.875487 215.626784 
L 654.453813 214.804428 
L 655.032139 217.002631 
L 655.610465 221.078145 
L 656.188791 217.445503 
L 656.767117 214.95013 
L 657.345443 223.438107 
L 657.923768 216.823413 
L 658.502094 220.66282 
L 659.08042 219.937058 
L 659.658746 216.310923 
L 660.237072 218.617424 
L 660.815398 215.860076 
L 661.97205 211.890055 
L 662.550376 204.657877 
L 663.128702 208.478839 
L 663.707028 204.477107 
L 664.285353 207.18708 
L 664.863679 208.712169 
L 665.442005 210.793093 
L 666.020331 202.20054 
L 666.598657 205.352579 
L 667.176983 205.842804 
L 667.755309 204.120311 
L 668.333635 212.14929 
L 668.911961 211.766836 
L 669.490287 209.412337 
L 670.068613 212.7583 
L 670.646938 221.333826 
L 671.225264 210.646111 
L 671.80359 215.033636 
L 672.381916 211.739009 
L 672.960242 217.63702 
L 673.538568 220.454143 
L 674.116894 217.936223 
L 674.69522 217.904911 
L 675.273546 217.15816 
L 675.851872 217.114786 
L 676.430198 213.381648 
L 677.008523 218.464338 
L 677.586849 214.316118 
L 678.165175 216.081315 
L 678.743501 217.067369 
L 679.321827 210.166756 
L 679.900153 220.917487 
L 680.478479 216.365379 
L 681.056805 213.776209 
L 682.213457 213.936026 
L 682.791783 215.791419 
L 683.370108 214.574584 
L 683.948434 217.82996 
L 684.52676 213.893088 
L 685.105086 214.0031 
L 685.683412 212.266075 
L 686.261738 215.860714 
L 686.840064 215.905643 
L 687.41839 213.653592 
L 687.41839 213.653592 
" clip-path="url(#pc31f933452)" style="fill: none; stroke: #534ab7; stroke-width: 0.8; stroke-linecap: square"/>
   </g>
   <g id="patch_6">
    <path d="M 66.209615 316.543462 
L 66.209615 191.693112 
" style="fill: none; stroke: #000000; stroke-width: 0.8; stroke-linejoin: miter; stroke-linecap: square"/>
   </g>
   <g id="patch_7">
    <path d="M 66.209615 316.543462 
L 716.99976 316.543462 
" style="fill: none; stroke: #000000; stroke-width: 0.8; stroke-linejoin: miter; stroke-linecap: square"/>
   </g>
   <g id="text_12">
    <text style="font-weight: 700; font-size: 13px; font-family: 'DejaVu Sans'; text-anchor: start" x="66.209615" y="185.693112" transform="rotate(-0 66.209615 185.693112)">LB5 · Synthetic onset-zone contact</text>
   </g>
  </g>
  <g id="axes_3">
   <g id="patch_8">
    <path d="M 66.209615 466.77226 
L 716.99976 466.77226 
L 716.99976 341.92191 
L 66.209615 341.92191 
z
" style="fill: #ffffff"/>
   </g>
   <g id="matplotlib.axis_5">
    <g id="xtick_17">
     <g id="line2d_51">
      <path d="M 125.285607 466.77226 
L 125.285607 341.92191 
" clip-path="url(#pe9d1b9113d)" style="fill: none; stroke: #b0b0b0; stroke-opacity: 0.15; stroke-width: 0.8; stroke-linecap: square"/>
     </g>
     <g id="line2d_52">
      <g>
       <use xlink:href="#m823bcb7d03" x="125.285607" y="466.77226" style="stroke: #000000; stroke-width: 0.8"/>
      </g>
     </g>
     <g id="text_13">
      <text style="font-size: 12px; font-family: 'DejaVu Sans'; text-anchor: middle" x="125.285607" y="482.890385" transform="rotate(-0 125.285607 482.890385)">243.25</text>
     </g>
    </g>
    <g id="xtick_18">
     <g id="line2d_53">
      <path d="M 199.311323 466.77226 
L 199.311323 341.92191 
" clip-path="url(#pe9d1b9113d)" style="fill: none; stroke: #b0b0b0; stroke-opacity: 0.15; stroke-width: 0.8; stroke-linecap: square"/>
     </g>
     <g id="line2d_54">
      <g>
       <use xlink:href="#m823bcb7d03" x="199.311323" y="466.77226" style="stroke: #000000; stroke-width: 0.8"/>
      </g>
     </g>
     <g id="text_14">
      <text style="font-size: 12px; font-family: 'DejaVu Sans'; text-anchor: middle" x="199.311323" y="482.890385" transform="rotate(-0 199.311323 482.890385)">243.50</text>
     </g>
    </g>
    <g id="xtick_19">
     <g id="line2d_55">
      <path d="M 273.337039 466.77226 
L 273.337039 341.92191 
" clip-path="url(#pe9d1b9113d)" style="fill: none; stroke: #b0b0b0; stroke-opacity: 0.15; stroke-width: 0.8; stroke-linecap: square"/>
     </g>
     <g id="line2d_56">
      <g>
       <use xlink:href="#m823bcb7d03" x="273.337039" y="466.77226" style="stroke: #000000; stroke-width: 0.8"/>
      </g>
     </g>
     <g id="text_15">
      <text style="font-size: 12px; font-family: 'DejaVu Sans'; text-anchor: middle" x="273.337039" y="482.890385" transform="rotate(-0 273.337039 482.890385)">243.75</text>
     </g>
    </g>
    <g id="xtick_20">
     <g id="line2d_57">
      <path d="M 347.362755 466.77226 
L 347.362755 341.92191 
" clip-path="url(#pe9d1b9113d)" style="fill: none; stroke: #b0b0b0; stroke-opacity: 0.15; stroke-width: 0.8; stroke-linecap: square"/>
     </g>
     <g id="line2d_58">
      <g>
       <use xlink:href="#m823bcb7d03" x="347.362755" y="466.77226" style="stroke: #000000; stroke-width: 0.8"/>
      </g>
     </g>
     <g id="text_16">
      <text style="font-size: 12px; font-family: 'DejaVu Sans'; text-anchor: middle" x="347.362755" y="482.890385" transform="rotate(-0 347.362755 482.890385)">244.00</text>
     </g>
    </g>
    <g id="xtick_21">
     <g id="line2d_59">
      <path d="M 421.388472 466.77226 
L 421.388472 341.92191 
" clip-path="url(#pe9d1b9113d)" style="fill: none; stroke: #b0b0b0; stroke-opacity: 0.15; stroke-width: 0.8; stroke-linecap: square"/>
     </g>
     <g id="line2d_60">
      <g>
       <use xlink:href="#m823bcb7d03" x="421.388472" y="466.77226" style="stroke: #000000; stroke-width: 0.8"/>
      </g>
     </g>
     <g id="text_17">
      <text style="font-size: 12px; font-family: 'DejaVu Sans'; text-anchor: middle" x="421.388472" y="482.890385" transform="rotate(-0 421.388472 482.890385)">244.25</text>
     </g>
    </g>
    <g id="xtick_22">
     <g id="line2d_61">
      <path d="M 495.414188 466.77226 
L 495.414188 341.92191 
" clip-path="url(#pe9d1b9113d)" style="fill: none; stroke: #b0b0b0; stroke-opacity: 0.15; stroke-width: 0.8; stroke-linecap: square"/>
     </g>
     <g id="line2d_62">
      <g>
       <use xlink:href="#m823bcb7d03" x="495.414188" y="466.77226" style="stroke: #000000; stroke-width: 0.8"/>
      </g>
     </g>
     <g id="text_18">
      <text style="font-size: 12px; font-family: 'DejaVu Sans'; text-anchor: middle" x="495.414188" y="482.890385" transform="rotate(-0 495.414188 482.890385)">244.50</text>
     </g>
    </g>
    <g id="xtick_23">
     <g id="line2d_63">
      <path d="M 569.439904 466.77226 
L 569.439904 341.92191 
" clip-path="url(#pe9d1b9113d)" style="fill: none; stroke: #b0b0b0; stroke-opacity: 0.15; stroke-width: 0.8; stroke-linecap: square"/>
     </g>
     <g id="line2d_64">
      <g>
       <use xlink:href="#m823bcb7d03" x="569.439904" y="466.77226" style="stroke: #000000; stroke-width: 0.8"/>
      </g>
     </g>
     <g id="text_19">
      <text style="font-size: 12px; font-family: 'DejaVu Sans'; text-anchor: middle" x="569.439904" y="482.890385" transform="rotate(-0 569.439904 482.890385)">244.75</text>
     </g>
    </g>
    <g id="xtick_24">
     <g id="line2d_65">
      <path d="M 643.465621 466.77226 
L 643.465621 341.92191 
" clip-path="url(#pe9d1b9113d)" style="fill: none; stroke: #b0b0b0; stroke-opacity: 0.15; stroke-width: 0.8; stroke-linecap: square"/>
     </g>
     <g id="line2d_66">
      <g>
       <use xlink:href="#m823bcb7d03" x="643.465621" y="466.77226" style="stroke: #000000; stroke-width: 0.8"/>
      </g>
     </g>
     <g id="text_20">
      <text style="font-size: 12px; font-family: 'DejaVu Sans'; text-anchor: middle" x="643.465621" y="482.890385" transform="rotate(-0 643.465621 482.890385)">245.00</text>
     </g>
    </g>
    <g id="text_21">
     <text style="font-size: 12px; font-family: 'DejaVu Sans'; text-anchor: middle" x="391.604687" y="498.504135" transform="rotate(-0 391.604687 498.504135)">Recording time (seconds)</text>
    </g>
   </g>
   <g id="matplotlib.axis_6">
    <g id="ytick_9">
     <g id="line2d_67">
      <path d="M 66.209615 445.48834 
L 716.99976 445.48834 
" clip-path="url(#pe9d1b9113d)" style="fill: none; stroke: #b0b0b0; stroke-opacity: 0.15; stroke-width: 0.8; stroke-linecap: square"/>
     </g>
     <g id="line2d_68">
      <g>
       <use xlink:href="#mdbd8738e15" x="66.209615" y="445.48834" style="stroke: #000000; stroke-width: 0.8"/>
      </g>
     </g>
     <g id="text_22">
      <text style="font-size: 12px; font-family: 'DejaVu Sans'; text-anchor: end" x="59.209615" y="450.047403" transform="rotate(-0 59.209615 450.047403)">−1000</text>
     </g>
    </g>
    <g id="ytick_10">
     <g id="line2d_69">
      <path d="M 66.209615 402.991568 
L 716.99976 402.991568 
" clip-path="url(#pe9d1b9113d)" style="fill: none; stroke: #b0b0b0; stroke-opacity: 0.15; stroke-width: 0.8; stroke-linecap: square"/>
     </g>
     <g id="line2d_70">
      <g>
       <use xlink:href="#mdbd8738e15" x="66.209615" y="402.991568" style="stroke: #000000; stroke-width: 0.8"/>
      </g>
     </g>
     <g id="text_23">
      <text style="font-size: 12px; font-family: 'DejaVu Sans'; text-anchor: end" x="59.209615" y="407.550631" transform="rotate(-0 59.209615 407.550631)">0</text>
     </g>
    </g>
    <g id="ytick_11">
     <g id="line2d_71">
      <path d="M 66.209615 360.494796 
L 716.99976 360.494796 
" clip-path="url(#pe9d1b9113d)" style="fill: none; stroke: #b0b0b0; stroke-opacity: 0.15; stroke-width: 0.8; stroke-linecap: square"/>
     </g>
     <g id="line2d_72">
      <g>
       <use xlink:href="#mdbd8738e15" x="66.209615" y="360.494796" style="stroke: #000000; stroke-width: 0.8"/>
      </g>
     </g>
     <g id="text_24">
      <text style="font-size: 12px; font-family: 'DejaVu Sans'; text-anchor: end" x="59.209615" y="365.053858" transform="rotate(-0 59.209615 365.053858)">1000</text>
     </g>
    </g>
    <g id="text_25">
     <text style="font-size: 12px; font-family: 'DejaVu Sans'; text-anchor: middle" x="12.118365" y="404.347085" transform="rotate(-90 12.118365 404.347085)">µV</text>
    </g>
   </g>
   <g id="line2d_73">
    <path d="M 95.790985 416.966135 
L 96.369311 426.605628 
L 96.947637 396.637802 
L 97.525963 385.46471 
L 98.104289 416.89744 
L 98.682615 381.240166 
L 99.260941 390.890502 
L 99.839267 377.817118 
L 100.417592 423.994637 
L 101.574244 384.944338 
L 102.15257 387.880854 
L 102.730896 396.899221 
L 103.887548 419.553941 
L 104.465874 390.710944 
L 105.0442 431.490064 
L 105.622526 409.502227 
L 106.200852 399.773716 
L 106.779177 412.278984 
L 107.357503 407.858349 
L 107.935829 421.585444 
L 108.514155 394.608273 
L 109.092481 409.676101 
L 109.670807 412.882052 
L 110.249133 417.739425 
L 110.827459 398.885275 
L 111.405785 404.637911 
L 111.984111 424.81041 
L 112.562437 425.543395 
L 113.140762 375.164549 
L 113.719088 419.73376 
L 114.297414 406.482657 
L 114.87574 415.311977 
L 115.454066 439.001922 
L 116.032392 388.774573 
L 116.610718 395.339174 
L 117.189044 417.271905 
L 117.76737 386.618923 
L 118.345696 399.353934 
L 118.924022 399.50411 
L 119.502347 357.610048 
L 120.080673 419.644107 
L 120.658999 394.812876 
L 121.237325 414.270625 
L 121.815651 397.258013 
L 122.393977 415.985454 
L 122.972303 402.293574 
L 123.550629 396.106314 
L 124.128955 400.326274 
L 124.707281 391.35047 
L 125.285607 377.334016 
L 125.863932 416.836661 
L 126.442258 398.893681 
L 127.020584 399.988763 
L 127.59891 399.509619 
L 128.177236 400.03416 
L 128.755562 405.846076 
L 129.333888 401.776685 
L 129.912214 409.128169 
L 130.49054 373.343018 
L 131.068866 406.147334 
L 131.647192 430.336612 
L 132.225517 412.723812 
L 132.803843 428.525825 
L 133.382169 386.067682 
L 133.960495 400.624354 
L 134.538821 409.411601 
L 135.117147 402.742743 
L 135.695473 380.446634 
L 136.273799 411.484325 
L 136.852125 391.227752 
L 137.430451 416.781044 
L 138.008777 421.446479 
L 138.587102 434.257418 
L 139.165428 375.49461 
L 139.743754 382.990605 
L 140.32208 403.916914 
L 140.900406 386.610333 
L 141.478732 402.90747 
L 142.057058 423.077752 
L 142.635384 387.143451 
L 143.21371 439.014571 
L 143.792036 391.011056 
L 144.370362 380.987677 
L 144.948687 422.413398 
L 145.527013 407.932577 
L 146.105339 384.245853 
L 146.683665 414.995971 
L 147.261991 418.196528 
L 147.840317 426.192844 
L 148.418643 395.470743 
L 149.575295 399.864355 
L 150.153621 398.052116 
L 150.731947 398.848342 
L 151.310272 409.761004 
L 151.888598 394.897177 
L 152.466924 425.190082 
L 153.04525 407.620807 
L 153.623576 402.488155 
L 154.201902 381.766447 
L 154.780228 387.361923 
L 155.358554 395.090482 
L 155.93688 417.354519 
L 156.515206 426.524124 
L 157.093532 369.292066 
L 157.671857 351.358163 
L 158.250183 404.719325 
L 158.828509 411.618911 
L 159.406835 400.465278 
L 159.985161 401.384303 
L 160.563487 389.139667 
L 161.141813 373.626698 
L 161.720139 423.869775 
L 162.298465 363.997758 
L 162.876791 406.759152 
L 163.455117 401.495617 
L 164.033442 401.748155 
L 164.611768 416.176763 
L 165.190094 384.088897 
L 165.76842 403.360389 
L 166.346746 390.037886 
L 166.925072 401.789933 
L 167.503398 379.908213 
L 168.081724 419.639824 
L 168.66005 384.390383 
L 169.238376 404.391126 
L 169.816702 399.870785 
L 170.395027 405.435564 
L 170.973353 418.392971 
L 171.551679 385.189638 
L 172.130005 378.920904 
L 172.708331 371.385802 
L 173.286657 461.097244 
L 173.864983 404.745672 
L 174.443309 424.674458 
L 175.021635 402.757448 
L 175.599961 398.331277 
L 176.178287 430.029402 
L 176.756612 396.883376 
L 177.334938 417.480894 
L 177.913264 425.036064 
L 178.49159 377.95232 
L 179.069916 416.085558 
L 179.648242 386.853409 
L 180.226568 404.794362 
L 180.804894 411.026102 
L 181.38322 438.033319 
L 181.961546 400.40315 
L 182.539872 429.824152 
L 183.118197 433.467344 
L 183.696523 413.892406 
L 184.274849 414.93459 
L 184.853175 415.296997 
L 185.431501 425.207136 
L 186.009827 413.654405 
L 186.588153 424.075985 
L 187.166479 373.136781 
L 187.744805 396.893624 
L 188.323131 381.955292 
L 188.901457 395.979248 
L 189.479782 386.305454 
L 190.058108 405.294415 
L 190.636434 410.157427 
L 191.21476 374.240815 
L 191.793086 406.0029 
L 192.371412 387.960074 
L 192.949738 413.683607 
L 193.528064 406.562077 
L 194.10639 412.556091 
L 194.684716 433.101824 
L 195.263042 407.777877 
L 195.841367 418.760343 
L 196.419693 419.026499 
L 196.998019 395.691136 
L 197.576345 402.429478 
L 198.154671 382.308012 
L 198.732997 443.373083 
L 199.311323 388.370498 
L 199.889649 411.947595 
L 200.467975 363.121356 
L 201.046301 409.282716 
L 201.624627 347.596926 
L 202.202952 400.973888 
L 202.781278 432.884071 
L 203.359604 396.888482 
L 203.93793 404.972962 
L 204.516256 408.471742 
L 205.094582 443.010161 
L 205.672908 404.653864 
L 206.251234 411.97858 
L 206.82956 383.102602 
L 207.407886 426.88027 
L 207.986212 399.315134 
L 208.564537 415.362729 
L 209.142863 383.637259 
L 209.721189 426.759127 
L 210.299515 402.114391 
L 210.877841 406.6588 
L 211.456167 428.310737 
L 212.034493 390.961938 
L 212.612819 394.663919 
L 213.191145 408.417726 
L 213.769471 378.958695 
L 214.926122 419.330056 
L 215.504448 401.756895 
L 216.082774 407.459026 
L 216.6611 396.182978 
L 217.239426 400.803356 
L 217.817752 420.726753 
L 218.396078 381.028057 
L 218.974404 411.104177 
L 219.55273 416.925772 
L 220.131056 396.256288 
L 220.709381 385.304294 
L 221.287707 406.149356 
L 221.866033 387.350622 
L 222.444359 382.141134 
L 223.022685 407.668308 
L 223.601011 413.85688 
L 224.179337 417.669712 
L 224.757663 419.30432 
L 225.335989 400.103 
L 225.914315 396.279188 
L 226.492641 406.740321 
L 227.070966 380.850152 
L 227.649292 404.327955 
L 228.227618 395.243526 
L 228.805944 378.665314 
L 229.38427 417.71667 
L 229.962596 395.962779 
L 230.540922 427.029719 
L 231.119248 394.481112 
L 231.697574 407.068447 
L 232.2759 429.468612 
L 232.854226 403.130659 
L 234.010877 372.484335 
L 234.589203 386.480452 
L 235.167529 433.644893 
L 235.745855 369.891922 
L 236.324181 381.261218 
L 236.902507 379.016195 
L 237.480833 399.342348 
L 238.059159 407.303236 
L 238.637485 406.159735 
L 239.215811 443.282496 
L 239.794136 380.878372 
L 240.372462 393.567478 
L 240.950788 403.509879 
L 241.529114 393.18236 
L 242.10744 430.937403 
L 243.264092 381.063119 
L 243.842418 419.906704 
L 244.420744 393.680451 
L 244.99907 359.329432 
L 245.577396 404.448524 
L 246.155721 358.607616 
L 246.734047 394.922017 
L 247.312373 407.466701 
L 247.890699 386.468702 
L 248.469025 401.638598 
L 249.047351 390.981431 
L 249.625677 391.776354 
L 250.204003 390.653269 
L 250.782329 396.308548 
L 251.360655 430.830401 
L 251.938981 393.507778 
L 252.517306 370.004401 
L 253.095632 425.44395 
L 253.673958 394.124923 
L 254.252284 396.157937 
L 254.83061 397.516476 
L 255.408936 404.181628 
L 255.987262 432.197329 
L 256.565588 382.030424 
L 257.143914 412.035057 
L 257.72224 410.283925 
L 258.300566 385.963662 
L 258.878891 420.936876 
L 259.457217 398.413847 
L 260.035543 384.492658 
L 260.613869 387.206836 
L 261.192195 402.987071 
L 261.770521 405.231685 
L 262.348847 390.233778 
L 262.927173 393.812575 
L 263.505499 408.792449 
L 264.083825 352.517029 
L 264.662151 399.931266 
L 265.240476 393.970259 
L 265.818802 403.157109 
L 266.397128 407.369536 
L 266.975454 398.344469 
L 267.55378 414.81749 
L 268.132106 426.195092 
L 268.710432 381.472731 
L 269.288758 399.759978 
L 269.867084 400.277672 
L 270.44541 405.472244 
L 271.023736 385.704535 
L 271.602061 414.064917 
L 272.180387 423.881134 
L 272.758713 380.450675 
L 273.337039 363.549134 
L 273.915365 393.399133 
L 274.493691 391.329015 
L 275.072017 373.224458 
L 275.650343 398.714402 
L 276.228669 384.678576 
L 276.806995 382.004561 
L 277.385321 398.448361 
L 277.963646 393.628099 
L 278.541972 402.619094 
L 279.120298 399.171579 
L 280.27695 435.62565 
L 280.855276 392.289333 
L 281.433602 393.375786 
L 282.011928 369.26132 
L 282.590254 411.307686 
L 283.16858 423.40628 
L 283.746906 388.673525 
L 284.325231 385.561858 
L 284.903557 415.729073 
L 285.481883 399.934095 
L 286.060209 410.930273 
L 286.638535 409.936062 
L 287.216861 421.589657 
L 287.795187 363.973613 
L 288.373513 388.528812 
L 288.951839 376.4186 
L 289.530165 380.423325 
L 290.108491 372.643275 
L 290.686816 401.87555 
L 291.265142 401.876431 
L 291.843468 402.688005 
L 292.421794 408.654427 
L 293.00012 389.665872 
L 293.578446 388.644232 
L 294.156772 379.049269 
L 294.735098 415.85172 
L 295.313424 397.099939 
L 295.89175 401.143644 
L 296.470076 416.865129 
L 297.048401 420.563072 
L 297.626727 412.954872 
L 298.205053 414.810159 
L 298.783379 374.890919 
L 299.361705 385.837453 
L 299.940031 406.459968 
L 300.518357 395.601337 
L 301.096683 392.708928 
L 301.675009 379.418787 
L 302.253335 389.03535 
L 302.831661 407.83675 
L 303.409986 398.547045 
L 303.988312 396.808048 
L 304.566638 384.119385 
L 305.144964 413.703185 
L 305.72329 371.520256 
L 306.301616 422.439233 
L 306.879942 381.763362 
L 307.458268 386.612806 
L 308.036594 422.198652 
L 308.61492 415.145811 
L 309.193246 393.021229 
L 309.771571 409.404696 
L 310.349897 399.248083 
L 310.928223 422.960986 
L 311.506549 383.856922 
L 312.084875 406.523607 
L 312.663201 390.480842 
L 313.241527 402.322922 
L 313.819853 428.730035 
L 314.398179 400.769388 
L 314.976505 400.413791 
L 315.554831 369.46659 
L 316.133156 376.641657 
L 316.711482 400.762249 
L 317.289808 393.947222 
L 317.868134 415.516703 
L 318.44646 424.045749 
L 319.024786 425.690307 
L 319.603112 393.853324 
L 320.181438 398.488854 
L 320.759764 419.162985 
L 321.33809 380.056951 
L 321.916416 428.488756 
L 322.494741 388.280059 
L 323.073067 381.145602 
L 323.651393 403.521115 
L 324.229719 392.383785 
L 324.808045 420.571434 
L 325.386371 426.164872 
L 325.964697 382.337515 
L 326.543023 382.762841 
L 327.121349 411.773974 
L 328.278001 400.912105 
L 328.856326 383.999344 
L 329.434652 406.355282 
L 330.012978 377.561606 
L 330.591304 392.990885 
L 331.16963 380.311942 
L 331.747956 392.770083 
L 332.326282 396.040346 
L 332.904608 379.054835 
L 333.482934 396.886137 
L 334.06126 351.511417 
L 334.639585 438.311227 
L 335.217911 400.978387 
L 335.796237 397.344734 
L 336.374563 423.20753 
L 337.531215 370.641349 
L 338.109541 393.004707 
L 338.687867 400.345605 
L 339.844519 409.206862 
L 340.422845 385.486627 
L 341.00117 414.738983 
L 341.579496 411.804278 
L 342.157822 438.490621 
L 342.736148 391.374345 
L 343.314474 383.608661 
L 343.8928 382.897961 
L 344.471126 446.52863 
L 345.049452 434.377477 
L 345.627778 406.291018 
L 346.206104 395.532619 
L 346.78443 405.971671 
L 347.362755 454.961887 
L 347.941081 390.483228 
L 348.519407 393.066682 
L 349.097733 420.200259 
L 349.676059 417.212245 
L 350.254385 393.282073 
L 350.832711 397.403508 
L 351.411037 409.327682 
L 351.989363 434.654543 
L 353.146015 394.101158 
L 353.72434 397.200046 
L 354.302666 390.199852 
L 354.880992 401.899652 
L 355.459318 403.999625 
L 356.037644 406.94775 
L 356.61597 381.643708 
L 357.194296 371.937097 
L 358.350948 414.535259 
L 358.929274 390.419678 
L 359.5076 424.486106 
L 360.085925 439.981959 
L 360.664251 394.355665 
L 361.242577 410.942038 
L 361.820903 386.174289 
L 362.399229 381.069616 
L 363.555881 403.196193 
L 364.134207 374.610425 
L 364.712533 399.816946 
L 365.290859 398.204521 
L 365.869185 421.909888 
L 366.44751 433.07895 
L 367.025836 384.705415 
L 367.604162 386.719484 
L 368.182488 428.081668 
L 368.760814 393.171166 
L 369.33914 398.064118 
L 369.917466 412.973343 
L 370.495792 394.022193 
L 371.074118 428.916831 
L 371.652444 404.809581 
L 372.23077 414.322244 
L 372.809095 395.928233 
L 373.387421 418.869034 
L 373.965747 417.812464 
L 374.544073 388.081962 
L 375.122399 402.692181 
L 375.700725 398.731761 
L 376.279051 400.947721 
L 376.857377 407.408621 
L 377.435703 416.292111 
L 378.014029 383.247004 
L 378.592355 410.693802 
L 379.17068 399.683847 
L 379.749006 427.27486 
L 380.327332 413.392396 
L 380.905658 437.19549 
L 381.483984 410.670714 
L 382.06231 441.488009 
L 382.640636 372.06539 
L 383.218962 432.205683 
L 383.797288 369.849736 
L 384.375614 387.679386 
L 384.95394 428.73456 
L 385.532265 409.858795 
L 386.110591 413.019837 
L 386.688917 420.645881 
L 387.845569 395.41746 
L 388.423895 390.806026 
L 389.002221 398.946439 
L 389.580547 392.262235 
L 390.158873 426.716341 
L 390.737199 392.283777 
L 391.315525 404.905007 
L 391.89385 391.799038 
L 392.472176 383.071395 
L 393.050502 392.343954 
L 393.628828 420.911437 
L 394.207154 398.406318 
L 394.78548 394.805389 
L 395.363806 393.11801 
L 395.942132 406.924877 
L 396.520458 433.749603 
L 397.098784 437.265766 
L 397.67711 411.693335 
L 398.255435 404.612411 
L 398.833761 415.70908 
L 399.412087 404.113375 
L 399.990413 412.26644 
L 400.568739 380.661863 
L 401.147065 390.521665 
L 401.725391 426.266342 
L 402.303717 430.744876 
L 402.882043 396.782761 
L 403.460369 381.270445 
L 404.038695 383.285861 
L 404.61702 387.052412 
L 405.195346 412.441796 
L 405.773672 381.20223 
L 406.351998 387.205992 
L 406.930324 394.774307 
L 407.50865 416.865353 
L 408.665302 393.205077 
L 409.243628 389.937467 
L 409.821954 420.757419 
L 410.40028 380.439984 
L 410.978605 388.692739 
L 411.556931 407.251989 
L 412.135257 348.895862 
L 412.713583 404.054159 
L 413.291909 423.054178 
L 414.448561 376.384588 
L 415.026887 408.994652 
L 415.605213 361.388187 
L 416.183539 418.106908 
L 416.761865 409.701501 
L 417.34019 409.65553 
L 417.918516 377.29124 
L 418.496842 412.313138 
L 419.075168 405.260483 
L 419.653494 423.497552 
L 420.23182 436.19857 
L 420.810146 413.626205 
L 421.388472 407.170547 
L 421.966798 413.155574 
L 422.545124 400.579904 
L 423.12345 403.363221 
L 423.701775 415.627875 
L 424.280101 407.343058 
L 424.858427 404.931875 
L 425.436753 426.536491 
L 426.015079 399.758725 
L 426.593405 406.818816 
L 427.171731 404.537417 
L 427.750057 411.610304 
L 428.328383 436.670168 
L 428.906709 427.643456 
L 429.485035 400.609891 
L 430.06336 430.078895 
L 430.641686 391.557407 
L 431.220012 390.001503 
L 431.798338 399.6251 
L 432.95499 389.89415 
L 434.111642 433.322085 
L 434.689968 393.688781 
L 435.268294 409.739131 
L 435.84662 389.534416 
L 436.424945 417.708126 
L 437.003271 382.317665 
L 437.581597 370.381953 
L 438.159923 436.018791 
L 438.738249 410.146674 
L 439.316575 395.383641 
L 439.894901 443.188883 
L 440.473227 430.92384 
L 441.051553 408.980679 
L 441.629879 401.945242 
L 442.208205 419.15079 
L 442.78653 398.400022 
L 443.364856 411.624352 
L 443.943182 418.627702 
L 444.521508 397.230279 
L 445.099834 393.92695 
L 445.67816 375.437345 
L 446.256486 367.089033 
L 446.834812 413.779537 
L 447.413138 428.822021 
L 447.991464 400.877516 
L 448.56979 412.56561 
L 449.148115 391.965044 
L 449.726441 418.254417 
L 450.304767 433.749427 
L 450.883093 437.336921 
L 451.461419 412.341258 
L 452.039745 381.727037 
L 452.618071 401.343265 
L 453.196397 376.869457 
L 453.774723 367.933466 
L 454.353049 380.440714 
L 455.5097 428.618296 
L 456.088026 407.852413 
L 456.666352 441.526531 
L 457.244678 368.791226 
L 457.823004 393.279221 
L 458.40133 372.696462 
L 458.979656 410.153942 
L 459.557982 374.91883 
L 460.136308 404.142603 
L 460.714634 374.87586 
L 461.292959 398.623601 
L 461.871285 409.579037 
L 462.449611 432.455032 
L 463.027937 410.760651 
L 463.606263 416.788425 
L 464.184589 401.833731 
L 464.762915 403.805335 
L 465.341241 367.271353 
L 465.919567 423.722321 
L 466.497893 380.506137 
L 467.076219 391.309651 
L 467.654544 397.594943 
L 468.23287 386.422037 
L 468.811196 393.228567 
L 469.967848 434.359322 
L 470.546174 416.910616 
L 471.1245 387.590727 
L 471.702826 427.643442 
L 472.281152 395.19635 
L 472.859478 423.132403 
L 473.437804 400.003396 
L 474.594455 426.871398 
L 475.172781 402.024618 
L 475.751107 402.645822 
L 476.329433 405.856398 
L 476.907759 392.308402 
L 477.486085 401.633716 
L 478.064411 390.892903 
L 478.642737 422.497368 
L 479.221063 409.47737 
L 479.799389 404.926515 
L 480.377714 420.712247 
L 480.95604 400.04627 
L 481.534366 421.756444 
L 482.112692 405.5767 
L 482.691018 374.509311 
L 483.269344 420.895137 
L 483.84767 416.4122 
L 484.425996 394.609704 
L 485.004322 414.806326 
L 485.582648 362.115576 
L 486.739299 418.678153 
L 487.317625 399.147128 
L 487.895951 406.699832 
L 488.474277 437.629946 
L 489.052603 415.456167 
L 489.630929 388.095209 
L 490.787581 413.918562 
L 491.365907 384.258834 
L 491.944233 381.490665 
L 492.522559 394.745935 
L 493.100884 395.112437 
L 493.67921 397.971661 
L 494.257536 414.970476 
L 494.835862 422.668412 
L 495.414188 389.289525 
L 495.992514 362.663269 
L 496.57084 411.023534 
L 497.149166 407.656604 
L 497.727492 391.632566 
L 498.305818 423.695504 
L 498.884144 378.224258 
L 499.462469 425.271519 
L 500.040795 436.61189 
L 500.619121 392.386509 
L 501.197447 430.003141 
L 501.775773 389.357405 
L 502.354099 371.46641 
L 503.510751 419.622258 
L 504.089077 411.304014 
L 504.667403 416.558014 
L 505.245729 416.49387 
L 505.824054 424.087445 
L 506.40238 398.43183 
L 506.980706 391.974502 
L 507.559032 428.075836 
L 508.137358 415.028883 
L 508.715684 368.252939 
L 509.29401 422.055365 
L 509.872336 445.024742 
L 510.450662 399.68892 
L 511.028988 390.157151 
L 511.607314 393.928128 
L 512.185639 387.214904 
L 512.763965 394.302941 
L 513.342291 390.053948 
L 513.920617 416.009142 
L 514.498943 399.216851 
L 515.077269 396.117187 
L 515.655595 408.735158 
L 516.812247 395.569168 
L 517.390573 407.05876 
L 517.968899 411.509286 
L 518.547224 390.519689 
L 519.12555 412.289616 
L 519.703876 404.834906 
L 520.282202 395.747185 
L 520.860528 416.569789 
L 521.438854 418.692109 
L 522.01718 409.427661 
L 522.595506 414.798353 
L 523.173832 409.050944 
L 523.752158 428.907104 
L 524.330484 423.700393 
L 525.487135 395.273389 
L 526.065461 402.831976 
L 526.643787 424.152777 
L 527.222113 404.482922 
L 527.800439 406.893851 
L 528.378765 422.057535 
L 528.957091 405.695271 
L 529.535417 394.547619 
L 530.113743 380.184777 
L 530.692069 378.481784 
L 531.270394 433.567005 
L 531.84872 422.79711 
L 532.427046 378.241858 
L 533.005372 416.27126 
L 533.583698 412.780096 
L 534.162024 407.821865 
L 534.74035 391.243762 
L 535.318676 410.36859 
L 536.475328 401.140735 
L 537.053654 405.105769 
L 537.631979 401.973663 
L 538.210305 389.840166 
L 538.788631 403.917614 
L 539.366957 411.108511 
L 540.523609 398.249656 
L 541.101935 399.905354 
L 541.680261 393.84257 
L 542.258587 430.838364 
L 542.836913 435.562766 
L 543.415239 405.231814 
L 543.993564 403.505396 
L 544.57189 386.70114 
L 545.150216 390.738168 
L 545.728542 410.023828 
L 546.306868 422.432808 
L 546.885194 412.710846 
L 547.46352 425.506105 
L 548.041846 392.977897 
L 548.620172 407.76582 
L 549.198498 400.384083 
L 549.776824 417.743373 
L 550.355149 448.204177 
L 550.933475 391.750609 
L 551.511801 427.25326 
L 552.090127 397.892354 
L 552.668453 399.961242 
L 553.246779 376.159059 
L 553.825105 406.823456 
L 554.403431 387.278256 
L 554.981757 398.686878 
L 555.560083 402.269268 
L 556.138409 378.340578 
L 556.716734 406.7371 
L 557.29506 420.246362 
L 557.873386 415.575223 
L 558.451712 393.279841 
L 559.030038 412.705085 
L 559.608364 388.625335 
L 560.18669 381.950036 
L 560.765016 406.576051 
L 561.343342 411.151133 
L 561.921668 393.320892 
L 562.499994 430.913672 
L 563.078319 378.013515 
L 563.656645 397.133667 
L 564.234971 385.554105 
L 564.813297 435.013835 
L 565.391623 402.517855 
L 565.969949 409.472841 
L 566.548275 411.158535 
L 567.126601 400.670055 
L 567.704927 426.138387 
L 568.283253 434.621687 
L 568.861579 407.654069 
L 569.439904 401.360205 
L 570.01823 388.785248 
L 570.596556 394.515146 
L 571.174882 390.00833 
L 571.753208 392.094517 
L 572.331534 423.29009 
L 572.90986 400.226696 
L 573.488186 395.456593 
L 574.066512 373.02043 
L 574.644838 405.326871 
L 575.223163 377.759965 
L 575.801489 380.803674 
L 576.379815 379.677555 
L 576.958141 420.547033 
L 577.536467 420.226895 
L 578.114793 414.18463 
L 578.693119 397.868824 
L 579.271445 404.191513 
L 579.849771 438.834635 
L 581.006423 400.852255 
L 581.584748 417.955348 
L 582.163074 394.244861 
L 583.319726 407.026946 
L 584.476378 381.49629 
L 585.054704 407.428455 
L 585.63303 368.381372 
L 586.211356 377.177232 
L 586.789682 421.658875 
L 587.368008 425.400562 
L 587.946333 434.401877 
L 588.524659 409.505963 
L 589.102985 393.615179 
L 589.681311 398.937581 
L 590.259637 410.187028 
L 590.837963 390.730749 
L 591.416289 383.755223 
L 591.994615 417.372605 
L 592.572941 388.6027 
L 593.151267 409.499586 
L 593.729593 369.307633 
L 594.307918 415.367941 
L 594.886244 414.819509 
L 595.46457 426.110446 
L 596.042896 390.210176 
L 596.621222 408.967282 
L 597.199548 387.505826 
L 597.777874 429.897211 
L 598.3562 404.268391 
L 598.934526 411.700922 
L 599.512852 402.283524 
L 600.091178 433.748846 
L 600.669503 416.735999 
L 601.247829 375.35418 
L 601.826155 382.036879 
L 602.404481 395.19506 
L 602.982807 417.638411 
L 603.561133 449.066878 
L 604.139459 387.313465 
L 604.717785 363.649863 
L 605.874437 414.083525 
L 606.452763 408.074645 
L 607.031088 406.464311 
L 607.609414 390.961598 
L 608.18774 393.911187 
L 608.766066 388.308315 
L 609.344392 416.963453 
L 609.922718 434.244727 
L 610.501044 383.891428 
L 611.07937 400.430956 
L 611.657696 423.941448 
L 612.236022 386.249658 
L 612.814348 434.841475 
L 613.392673 392.587457 
L 613.970999 400.040273 
L 614.549325 410.950651 
L 615.127651 413.678921 
L 615.705977 398.675195 
L 616.284303 414.310009 
L 616.862629 384.054636 
L 617.440955 413.567072 
L 618.019281 431.539253 
L 618.597607 382.996543 
L 619.175933 406.52342 
L 619.754258 408.918599 
L 620.332584 420.190813 
L 620.91091 393.992308 
L 621.489236 359.341033 
L 622.067562 400.294647 
L 622.645888 400.358553 
L 623.224214 425.740145 
L 623.80254 412.607301 
L 624.380866 371.325447 
L 624.959192 366.334871 
L 625.537518 397.800222 
L 626.115843 401.819543 
L 626.694169 407.987478 
L 627.272495 382.556321 
L 627.850821 388.913558 
L 628.429147 407.197047 
L 629.007473 419.331319 
L 629.585799 409.694965 
L 630.164125 393.713842 
L 630.742451 412.816636 
L 631.320777 392.456466 
L 631.899103 397.464077 
L 632.477428 398.952125 
L 633.055754 380.598985 
L 633.63408 413.945419 
L 634.212406 416.902913 
L 634.790732 369.228244 
L 635.369058 418.422561 
L 635.947384 420.198793 
L 636.52571 381.209997 
L 637.104036 407.919916 
L 637.682362 400.325518 
L 638.260688 412.97678 
L 638.839013 381.02168 
L 639.417339 405.061253 
L 639.995665 378.899262 
L 640.573991 388.59571 
L 641.152317 391.418389 
L 641.730643 404.386562 
L 642.308969 411.885013 
L 642.887295 415.191354 
L 643.465621 413.275704 
L 644.043947 389.452165 
L 644.622273 387.995777 
L 645.200598 397.688074 
L 645.778924 399.869583 
L 646.35725 392.039229 
L 646.935576 421.915492 
L 647.513902 391.547846 
L 648.092228 428.622943 
L 648.670554 389.598568 
L 649.24888 413.911213 
L 649.827206 403.788406 
L 650.405532 439.400657 
L 650.983858 411.152836 
L 651.562183 412.759675 
L 652.140509 407.222853 
L 652.718835 395.344883 
L 653.297161 409.975266 
L 653.875487 384.300586 
L 654.453813 400.634868 
L 655.032139 408.235304 
L 655.610465 392.636079 
L 656.188791 420.276754 
L 656.767117 409.606359 
L 657.345443 411.618004 
L 657.923768 408.810989 
L 658.502094 377.901339 
L 659.08042 412.061965 
L 659.658746 415.420399 
L 660.815398 391.823077 
L 661.393724 418.884248 
L 662.550376 387.300511 
L 663.707028 426.67565 
L 664.285353 402.596223 
L 664.863679 406.972939 
L 665.442005 450.563023 
L 666.020331 382.336763 
L 666.598657 397.214839 
L 667.176983 386.808346 
L 667.755309 381.343316 
L 668.333635 395.555711 
L 668.911961 398.293438 
L 669.490287 429.87691 
L 670.068613 386.811858 
L 670.646938 418.081151 
L 671.80359 389.042702 
L 672.381916 424.385335 
L 672.960242 388.048701 
L 673.538568 381.933577 
L 674.116894 414.848114 
L 674.69522 412.058008 
L 675.273546 411.911024 
L 675.851872 380.308759 
L 676.430198 429.85922 
L 677.008523 415.076598 
L 677.586849 410.805276 
L 678.165175 398.958775 
L 678.743501 397.430887 
L 679.321827 381.571587 
L 679.900153 399.788214 
L 680.478479 410.251582 
L 681.056805 415.384621 
L 681.635131 416.584163 
L 682.213457 418.814673 
L 682.791783 403.367957 
L 683.370108 378.186188 
L 683.948434 397.181531 
L 684.52676 395.752865 
L 685.105086 393.856401 
L 685.683412 412.383208 
L 686.261738 357.687343 
L 686.840064 428.87569 
L 687.41839 414.864421 
L 687.41839 414.864421 
" clip-path="url(#pe9d1b9113d)" style="fill: none; stroke: #a35317; stroke-width: 0.8; stroke-linecap: square"/>
   </g>
   <g id="patch_9">
    <path d="M 66.209615 466.77226 
L 66.209615 341.92191 
" style="fill: none; stroke: #000000; stroke-width: 0.8; stroke-linejoin: miter; stroke-linecap: square"/>
   </g>
   <g id="patch_10">
    <path d="M 66.209615 466.77226 
L 716.99976 466.77226 
" style="fill: none; stroke: #000000; stroke-width: 0.8; stroke-linejoin: miter; stroke-linecap: square"/>
   </g>
   <g id="text_26">
    <text style="font-weight: 700; font-size: 13px; font-family: 'DejaVu Sans'; text-anchor: start" x="66.209615" y="335.92191" transform="rotate(-0 66.209615 335.92191)">LA6 · Marked bad: added noise</text>
   </g>
  </g>
  <g id="text_27">
   <text style="font-weight: 700; font-size: 17px; font-family: 'DejaVu Sans'; text-anchor: middle" x="360" y="15.917584" transform="rotate(-0 360 15.917584)">Three traces from the actual synthetic generator</text>
  </g>
 </g>
 <defs>
  <clipPath id="p4707574b34">
   <rect x="66.209615" y="41.464314" width="650.790145" height="124.85035"/>
  </clipPath>
  <clipPath id="pc31f933452">
   <rect x="66.209615" y="191.693112" width="650.790145" height="124.85035"/>
  </clipPath>
  <clipPath id="pe9d1b9113d">
   <rect x="66.209615" y="341.92191" width="650.790145" height="124.85035"/>
  </clipPath>
 </defs>
</svg>
